<mxfile host="app.diagrams.net" agent="Mozilla/5.0 (Windows NT 10.0; Win64; x64) AppleWebKit/537.36 (KHTML, like Gecko) Chrome/129.0.0.0 Safari/537.36" version="24.7.17">
  <diagram name="Page-1" id="FRMjlxH65LqtXLmiEOrE">
    <mxGraphModel dx="1687" dy="2029" grid="1" gridSize="10" guides="1" tooltips="1" connect="1" arrows="1" fold="1" page="1" pageScale="1" pageWidth="850" pageHeight="1100" math="0" shadow="0">
      <root>
        <mxCell id="0" />
        <mxCell id="1" parent="0" />
        <mxCell id="nbfr8xlKrn3ljvIZ1F1--9" style="edgeStyle=orthogonalEdgeStyle;rounded=0;orthogonalLoop=1;jettySize=auto;html=1;exitX=0.5;exitY=1;exitDx=0;exitDy=0;entryX=0.5;entryY=0;entryDx=0;entryDy=0;" edge="1" parent="1" source="66Gw3tGfQid-esu5kcbm-1" target="66Gw3tGfQid-esu5kcbm-8">
          <mxGeometry relative="1" as="geometry" />
        </mxCell>
        <mxCell id="66Gw3tGfQid-esu5kcbm-1" value="start" style="ellipse;whiteSpace=wrap;html=1;" parent="1" vertex="1">
          <mxGeometry x="100" y="-1050" width="120" height="80" as="geometry" />
        </mxCell>
        <mxCell id="66Gw3tGfQid-esu5kcbm-13" style="edgeStyle=orthogonalEdgeStyle;rounded=0;orthogonalLoop=1;jettySize=auto;html=1;exitX=0.5;exitY=1;exitDx=0;exitDy=0;entryX=0.5;entryY=0;entryDx=0;entryDy=0;" parent="1" source="66Gw3tGfQid-esu5kcbm-8" target="66Gw3tGfQid-esu5kcbm-10" edge="1">
          <mxGeometry relative="1" as="geometry" />
        </mxCell>
        <mxCell id="66Gw3tGfQid-esu5kcbm-8" value="ekipa dezura" style="rounded=1;whiteSpace=wrap;html=1;" parent="1" vertex="1">
          <mxGeometry x="100" y="-910" width="120" height="60" as="geometry" />
        </mxCell>
        <mxCell id="66Gw3tGfQid-esu5kcbm-15" style="edgeStyle=orthogonalEdgeStyle;rounded=0;orthogonalLoop=1;jettySize=auto;html=1;exitX=1;exitY=0.5;exitDx=0;exitDy=0;" parent="1" source="66Gw3tGfQid-esu5kcbm-10" edge="1">
          <mxGeometry relative="1" as="geometry">
            <mxPoint x="160" y="-820" as="targetPoint" />
          </mxGeometry>
        </mxCell>
        <mxCell id="66Gw3tGfQid-esu5kcbm-16" style="edgeStyle=orthogonalEdgeStyle;rounded=0;orthogonalLoop=1;jettySize=auto;html=1;exitX=0.5;exitY=1;exitDx=0;exitDy=0;entryX=0.5;entryY=0;entryDx=0;entryDy=0;" parent="1" source="66Gw3tGfQid-esu5kcbm-10" target="66Gw3tGfQid-esu5kcbm-11" edge="1">
          <mxGeometry relative="1" as="geometry" />
        </mxCell>
        <mxCell id="66Gw3tGfQid-esu5kcbm-10" value="da li iima poziva&lt;div&gt;za spasavanje&lt;/div&gt;" style="rhombus;whiteSpace=wrap;html=1;" parent="1" vertex="1">
          <mxGeometry x="120" y="-800" width="80" height="80" as="geometry" />
        </mxCell>
        <mxCell id="nbfr8xlKrn3ljvIZ1F1--10" style="edgeStyle=orthogonalEdgeStyle;rounded=0;orthogonalLoop=1;jettySize=auto;html=1;exitX=0.5;exitY=1;exitDx=0;exitDy=0;entryX=0.5;entryY=0;entryDx=0;entryDy=0;" edge="1" parent="1" source="66Gw3tGfQid-esu5kcbm-11" target="66Gw3tGfQid-esu5kcbm-18">
          <mxGeometry relative="1" as="geometry" />
        </mxCell>
        <mxCell id="66Gw3tGfQid-esu5kcbm-11" value="mobilizacija ekipe" style="rounded=1;whiteSpace=wrap;html=1;" parent="1" vertex="1">
          <mxGeometry x="100" y="-670" width="120" height="60" as="geometry" />
        </mxCell>
        <mxCell id="66Gw3tGfQid-esu5kcbm-31" style="edgeStyle=orthogonalEdgeStyle;rounded=0;orthogonalLoop=1;jettySize=auto;html=1;exitX=1;exitY=0.5;exitDx=0;exitDy=0;entryX=0;entryY=0.5;entryDx=0;entryDy=0;" parent="1" source="66Gw3tGfQid-esu5kcbm-17" target="66Gw3tGfQid-esu5kcbm-19" edge="1">
          <mxGeometry relative="1" as="geometry" />
        </mxCell>
        <mxCell id="66Gw3tGfQid-esu5kcbm-40" style="edgeStyle=orthogonalEdgeStyle;rounded=0;orthogonalLoop=1;jettySize=auto;html=1;exitX=0.5;exitY=1;exitDx=0;exitDy=0;entryX=0.5;entryY=0;entryDx=0;entryDy=0;" parent="1" source="66Gw3tGfQid-esu5kcbm-17" target="66Gw3tGfQid-esu5kcbm-28" edge="1">
          <mxGeometry relative="1" as="geometry" />
        </mxCell>
        <mxCell id="66Gw3tGfQid-esu5kcbm-17" value="da li je&lt;div&gt;po탑ar&lt;/div&gt;" style="rhombus;whiteSpace=wrap;html=1;" parent="1" vertex="1">
          <mxGeometry x="280" y="-560" width="80" height="80" as="geometry" />
        </mxCell>
        <mxCell id="66Gw3tGfQid-esu5kcbm-30" style="edgeStyle=orthogonalEdgeStyle;rounded=0;orthogonalLoop=1;jettySize=auto;html=1;exitX=1;exitY=0.5;exitDx=0;exitDy=0;" parent="1" source="66Gw3tGfQid-esu5kcbm-18" target="66Gw3tGfQid-esu5kcbm-17" edge="1">
          <mxGeometry relative="1" as="geometry" />
        </mxCell>
        <mxCell id="66Gw3tGfQid-esu5kcbm-18" value="provera detalja&lt;div&gt;intervencije&lt;/div&gt;" style="rounded=1;whiteSpace=wrap;html=1;" parent="1" vertex="1">
          <mxGeometry x="100" y="-550" width="120" height="60" as="geometry" />
        </mxCell>
        <mxCell id="66Gw3tGfQid-esu5kcbm-32" style="edgeStyle=orthogonalEdgeStyle;rounded=0;orthogonalLoop=1;jettySize=auto;html=1;exitX=1;exitY=0.5;exitDx=0;exitDy=0;entryX=0;entryY=0.5;entryDx=0;entryDy=0;" parent="1" source="66Gw3tGfQid-esu5kcbm-19" target="66Gw3tGfQid-esu5kcbm-20" edge="1">
          <mxGeometry relative="1" as="geometry" />
        </mxCell>
        <mxCell id="66Gw3tGfQid-esu5kcbm-41" style="edgeStyle=orthogonalEdgeStyle;rounded=0;orthogonalLoop=1;jettySize=auto;html=1;exitX=0.5;exitY=1;exitDx=0;exitDy=0;entryX=0.5;entryY=0;entryDx=0;entryDy=0;" parent="1" source="66Gw3tGfQid-esu5kcbm-19" target="66Gw3tGfQid-esu5kcbm-36" edge="1">
          <mxGeometry relative="1" as="geometry" />
        </mxCell>
        <mxCell id="66Gw3tGfQid-esu5kcbm-19" value="da li je&lt;div&gt;poplava&lt;/div&gt;" style="rhombus;whiteSpace=wrap;html=1;" parent="1" vertex="1">
          <mxGeometry x="400" y="-560" width="80" height="80" as="geometry" />
        </mxCell>
        <mxCell id="66Gw3tGfQid-esu5kcbm-33" style="edgeStyle=orthogonalEdgeStyle;rounded=0;orthogonalLoop=1;jettySize=auto;html=1;exitX=1;exitY=0.5;exitDx=0;exitDy=0;entryX=0;entryY=0.5;entryDx=0;entryDy=0;" parent="1" source="66Gw3tGfQid-esu5kcbm-20" target="66Gw3tGfQid-esu5kcbm-21" edge="1">
          <mxGeometry relative="1" as="geometry" />
        </mxCell>
        <mxCell id="66Gw3tGfQid-esu5kcbm-42" style="edgeStyle=orthogonalEdgeStyle;rounded=0;orthogonalLoop=1;jettySize=auto;html=1;exitX=0.5;exitY=1;exitDx=0;exitDy=0;entryX=0.5;entryY=0;entryDx=0;entryDy=0;" parent="1" source="66Gw3tGfQid-esu5kcbm-20" target="66Gw3tGfQid-esu5kcbm-37" edge="1">
          <mxGeometry relative="1" as="geometry" />
        </mxCell>
        <mxCell id="66Gw3tGfQid-esu5kcbm-20" value="da li je&lt;div&gt;zemljotres&lt;/div&gt;" style="rhombus;whiteSpace=wrap;html=1;" parent="1" vertex="1">
          <mxGeometry x="520" y="-560" width="80" height="80" as="geometry" />
        </mxCell>
        <mxCell id="66Gw3tGfQid-esu5kcbm-34" style="edgeStyle=orthogonalEdgeStyle;rounded=0;orthogonalLoop=1;jettySize=auto;html=1;exitX=1;exitY=0.5;exitDx=0;exitDy=0;entryX=0;entryY=0.5;entryDx=0;entryDy=0;" parent="1" source="66Gw3tGfQid-esu5kcbm-21" target="66Gw3tGfQid-esu5kcbm-22" edge="1">
          <mxGeometry relative="1" as="geometry" />
        </mxCell>
        <mxCell id="66Gw3tGfQid-esu5kcbm-43" style="edgeStyle=orthogonalEdgeStyle;rounded=0;orthogonalLoop=1;jettySize=auto;html=1;exitX=0.5;exitY=1;exitDx=0;exitDy=0;entryX=0.5;entryY=0;entryDx=0;entryDy=0;" parent="1" source="66Gw3tGfQid-esu5kcbm-21" target="66Gw3tGfQid-esu5kcbm-38" edge="1">
          <mxGeometry relative="1" as="geometry" />
        </mxCell>
        <mxCell id="66Gw3tGfQid-esu5kcbm-21" value="da li je&lt;div&gt;erupcija&lt;/div&gt;&lt;div&gt;vulkana&lt;/div&gt;" style="rhombus;whiteSpace=wrap;html=1;" parent="1" vertex="1">
          <mxGeometry x="640" y="-560" width="80" height="80" as="geometry" />
        </mxCell>
        <mxCell id="66Gw3tGfQid-esu5kcbm-35" style="edgeStyle=orthogonalEdgeStyle;rounded=0;orthogonalLoop=1;jettySize=auto;html=1;exitX=1;exitY=0.5;exitDx=0;exitDy=0;entryX=0;entryY=0.5;entryDx=0;entryDy=0;" parent="1" source="66Gw3tGfQid-esu5kcbm-22" target="66Gw3tGfQid-esu5kcbm-29" edge="1">
          <mxGeometry relative="1" as="geometry" />
        </mxCell>
        <mxCell id="66Gw3tGfQid-esu5kcbm-44" style="edgeStyle=orthogonalEdgeStyle;rounded=0;orthogonalLoop=1;jettySize=auto;html=1;exitX=0.5;exitY=1;exitDx=0;exitDy=0;entryX=0.5;entryY=0;entryDx=0;entryDy=0;" parent="1" source="66Gw3tGfQid-esu5kcbm-22" target="66Gw3tGfQid-esu5kcbm-39" edge="1">
          <mxGeometry relative="1" as="geometry" />
        </mxCell>
        <mxCell id="66Gw3tGfQid-esu5kcbm-22" value="da li je&lt;div&gt;udario&amp;nbsp;&lt;/div&gt;&lt;div&gt;meteor&lt;/div&gt;" style="rhombus;whiteSpace=wrap;html=1;" parent="1" vertex="1">
          <mxGeometry x="760" y="-560" width="80" height="80" as="geometry" />
        </mxCell>
        <mxCell id="IQwHB2YpEbQMh792aqkD-2" style="edgeStyle=orthogonalEdgeStyle;rounded=0;orthogonalLoop=1;jettySize=auto;html=1;exitX=1;exitY=0.5;exitDx=0;exitDy=0;" parent="1" source="66Gw3tGfQid-esu5kcbm-28" edge="1">
          <mxGeometry relative="1" as="geometry">
            <mxPoint x="380" y="-520" as="targetPoint" />
          </mxGeometry>
        </mxCell>
        <mxCell id="66Gw3tGfQid-esu5kcbm-28" value="uraditi sastanak o pojedina훾nosti zadatka" style="rounded=1;whiteSpace=wrap;html=1;" parent="1" vertex="1">
          <mxGeometry x="280" y="-440" width="80" height="80" as="geometry" />
        </mxCell>
        <mxCell id="66Gw3tGfQid-esu5kcbm-46" style="edgeStyle=orthogonalEdgeStyle;rounded=0;orthogonalLoop=1;jettySize=auto;html=1;exitX=0.5;exitY=1;exitDx=0;exitDy=0;entryX=1;entryY=0.5;entryDx=0;entryDy=0;" parent="1" source="66Gw3tGfQid-esu5kcbm-29" target="66Gw3tGfQid-esu5kcbm-45" edge="1">
          <mxGeometry relative="1" as="geometry" />
        </mxCell>
        <mxCell id="66Gw3tGfQid-esu5kcbm-29" value="obavestiti ekipu da&lt;div&gt;o훾ekuju&amp;nbsp;&lt;/div&gt;&lt;div&gt;neo훾ekivano&lt;/div&gt;" style="rounded=1;whiteSpace=wrap;html=1;" parent="1" vertex="1">
          <mxGeometry x="880" y="-550" width="120" height="60" as="geometry" />
        </mxCell>
        <mxCell id="IQwHB2YpEbQMh792aqkD-3" style="edgeStyle=orthogonalEdgeStyle;rounded=0;orthogonalLoop=1;jettySize=auto;html=1;exitX=1;exitY=0.5;exitDx=0;exitDy=0;" parent="1" source="66Gw3tGfQid-esu5kcbm-36" edge="1">
          <mxGeometry relative="1" as="geometry">
            <mxPoint x="500" y="-520" as="targetPoint" />
          </mxGeometry>
        </mxCell>
        <mxCell id="66Gw3tGfQid-esu5kcbm-36" value="uraditi sastanak o pojedina훾nosti zadatka" style="rounded=1;whiteSpace=wrap;html=1;" parent="1" vertex="1">
          <mxGeometry x="400" y="-440" width="80" height="80" as="geometry" />
        </mxCell>
        <mxCell id="IQwHB2YpEbQMh792aqkD-4" style="edgeStyle=orthogonalEdgeStyle;rounded=0;orthogonalLoop=1;jettySize=auto;html=1;exitX=1;exitY=0.5;exitDx=0;exitDy=0;" parent="1" source="66Gw3tGfQid-esu5kcbm-37" edge="1">
          <mxGeometry relative="1" as="geometry">
            <mxPoint x="620" y="-520" as="targetPoint" />
          </mxGeometry>
        </mxCell>
        <mxCell id="66Gw3tGfQid-esu5kcbm-37" value="uraditi sastanak o pojedina훾nosti zadatka" style="rounded=1;whiteSpace=wrap;html=1;" parent="1" vertex="1">
          <mxGeometry x="520" y="-440" width="80" height="80" as="geometry" />
        </mxCell>
        <mxCell id="IQwHB2YpEbQMh792aqkD-5" style="edgeStyle=orthogonalEdgeStyle;rounded=0;orthogonalLoop=1;jettySize=auto;html=1;exitX=1;exitY=0.5;exitDx=0;exitDy=0;" parent="1" source="66Gw3tGfQid-esu5kcbm-38" edge="1">
          <mxGeometry relative="1" as="geometry">
            <mxPoint x="740" y="-520" as="targetPoint" />
          </mxGeometry>
        </mxCell>
        <mxCell id="66Gw3tGfQid-esu5kcbm-38" value="uraditi sastanak o pojedina훾nosti zadatka" style="rounded=1;whiteSpace=wrap;html=1;" parent="1" vertex="1">
          <mxGeometry x="640" y="-440" width="80" height="80" as="geometry" />
        </mxCell>
        <mxCell id="IQwHB2YpEbQMh792aqkD-6" style="edgeStyle=orthogonalEdgeStyle;rounded=0;orthogonalLoop=1;jettySize=auto;html=1;exitX=1;exitY=0.5;exitDx=0;exitDy=0;" parent="1" source="66Gw3tGfQid-esu5kcbm-39" edge="1">
          <mxGeometry relative="1" as="geometry">
            <mxPoint x="860" y="-520" as="targetPoint" />
          </mxGeometry>
        </mxCell>
        <mxCell id="66Gw3tGfQid-esu5kcbm-39" value="uraditi sastanak o pojedina훾nosti zadatka" style="rounded=1;whiteSpace=wrap;html=1;" parent="1" vertex="1">
          <mxGeometry x="760" y="-440" width="80" height="80" as="geometry" />
        </mxCell>
        <mxCell id="IQwHB2YpEbQMh792aqkD-8" style="edgeStyle=orthogonalEdgeStyle;rounded=0;orthogonalLoop=1;jettySize=auto;html=1;exitX=0.5;exitY=1;exitDx=0;exitDy=0;entryX=0.5;entryY=0;entryDx=0;entryDy=0;" parent="1" source="66Gw3tGfQid-esu5kcbm-45" edge="1">
          <mxGeometry relative="1" as="geometry">
            <mxPoint x="160" y="-220" as="targetPoint" />
          </mxGeometry>
        </mxCell>
        <mxCell id="66Gw3tGfQid-esu5kcbm-45" value="ekipa obave큄tena&lt;div&gt;o zadatku&lt;/div&gt;" style="rounded=1;whiteSpace=wrap;html=1;" parent="1" vertex="1">
          <mxGeometry x="100" y="-310" width="120" height="60" as="geometry" />
        </mxCell>
        <mxCell id="IQwHB2YpEbQMh792aqkD-67" style="edgeStyle=orthogonalEdgeStyle;rounded=0;orthogonalLoop=1;jettySize=auto;html=1;exitX=1;exitY=0.5;exitDx=0;exitDy=0;fillColor=#f8cecc;strokeColor=#b85450;" parent="1" source="IQwHB2YpEbQMh792aqkD-9" edge="1">
          <mxGeometry relative="1" as="geometry">
            <mxPoint x="160" y="-130" as="targetPoint" />
          </mxGeometry>
        </mxCell>
        <mxCell id="IQwHB2YpEbQMh792aqkD-9" value="훾lan ekipe&lt;div&gt;1, 2,..n&lt;/div&gt;&lt;div&gt;ima opremu&lt;/div&gt;" style="rhombus;whiteSpace=wrap;html=1;" parent="1" vertex="1">
          <mxGeometry x="100" y="-110" width="110" height="110" as="geometry" />
        </mxCell>
        <mxCell id="IQwHB2YpEbQMh792aqkD-46" style="edgeStyle=orthogonalEdgeStyle;rounded=0;orthogonalLoop=1;jettySize=auto;html=1;exitX=1;exitY=0.5;exitDx=0;exitDy=0;" parent="1" source="IQwHB2YpEbQMh792aqkD-10" target="IQwHB2YpEbQMh792aqkD-11" edge="1">
          <mxGeometry relative="1" as="geometry" />
        </mxCell>
        <mxCell id="IQwHB2YpEbQMh792aqkD-10" value="oprema ispravna" style="shape=document;whiteSpace=wrap;html=1;boundedLbl=1;" parent="1" vertex="1">
          <mxGeometry x="1510" y="-590" width="120" height="80" as="geometry" />
        </mxCell>
        <mxCell id="IQwHB2YpEbQMh792aqkD-33" style="edgeStyle=orthogonalEdgeStyle;rounded=0;orthogonalLoop=1;jettySize=auto;html=1;exitX=0.5;exitY=1;exitDx=0;exitDy=0;entryX=0.5;entryY=0;entryDx=0;entryDy=0;" parent="1" source="IQwHB2YpEbQMh792aqkD-11" target="IQwHB2YpEbQMh792aqkD-13" edge="1">
          <mxGeometry relative="1" as="geometry" />
        </mxCell>
        <mxCell id="IQwHB2YpEbQMh792aqkD-43" style="edgeStyle=orthogonalEdgeStyle;rounded=0;orthogonalLoop=1;jettySize=auto;html=1;exitX=1;exitY=0.5;exitDx=0;exitDy=0;entryX=0;entryY=0.5;entryDx=0;entryDy=0;fillColor=#f8cecc;strokeColor=#b85450;" parent="1" source="IQwHB2YpEbQMh792aqkD-11" target="IQwHB2YpEbQMh792aqkD-12" edge="1">
          <mxGeometry relative="1" as="geometry" />
        </mxCell>
        <mxCell id="IQwHB2YpEbQMh792aqkD-11" value="oprema na&amp;nbsp;&lt;div&gt;stanju&lt;/div&gt;" style="rhombus;whiteSpace=wrap;html=1;" parent="1" vertex="1">
          <mxGeometry x="1520" y="-475" width="100" height="100" as="geometry" />
        </mxCell>
        <mxCell id="IQwHB2YpEbQMh792aqkD-45" style="edgeStyle=orthogonalEdgeStyle;rounded=0;orthogonalLoop=1;jettySize=auto;html=1;exitX=0.5;exitY=1;exitDx=0;exitDy=0;" parent="1" source="IQwHB2YpEbQMh792aqkD-12" edge="1">
          <mxGeometry relative="1" as="geometry">
            <mxPoint x="1730" y="-360" as="targetPoint" />
            <Array as="points">
              <mxPoint x="1830" y="-395" />
              <mxPoint x="1830" y="-375" />
              <mxPoint x="1730" y="-375" />
            </Array>
          </mxGeometry>
        </mxCell>
        <mxCell id="IQwHB2YpEbQMh792aqkD-12" value="nabavka nove opreme" style="rounded=1;whiteSpace=wrap;html=1;fillColor=#f8cecc;strokeColor=#b85450;" parent="1" vertex="1">
          <mxGeometry x="1830" y="-455" width="120" height="60" as="geometry" />
        </mxCell>
        <mxCell id="IQwHB2YpEbQMh792aqkD-42" style="edgeStyle=orthogonalEdgeStyle;rounded=0;orthogonalLoop=1;jettySize=auto;html=1;exitX=1;exitY=0.5;exitDx=0;exitDy=0;entryX=0;entryY=0.5;entryDx=0;entryDy=0;" parent="1" source="IQwHB2YpEbQMh792aqkD-13" target="IQwHB2YpEbQMh792aqkD-14" edge="1">
          <mxGeometry relative="1" as="geometry" />
        </mxCell>
        <mxCell id="IQwHB2YpEbQMh792aqkD-55" style="edgeStyle=orthogonalEdgeStyle;rounded=0;orthogonalLoop=1;jettySize=auto;html=1;exitX=0.5;exitY=1;exitDx=0;exitDy=0;entryX=0.5;entryY=0;entryDx=0;entryDy=0;" parent="1" source="IQwHB2YpEbQMh792aqkD-13" target="IQwHB2YpEbQMh792aqkD-49" edge="1">
          <mxGeometry relative="1" as="geometry" />
        </mxCell>
        <mxCell id="IQwHB2YpEbQMh792aqkD-13" value="oprema&amp;nbsp;&lt;div&gt;ispravna&lt;/div&gt;" style="rhombus;whiteSpace=wrap;html=1;" parent="1" vertex="1">
          <mxGeometry x="1520" y="-340" width="100" height="100" as="geometry" />
        </mxCell>
        <mxCell id="IQwHB2YpEbQMh792aqkD-41" style="edgeStyle=orthogonalEdgeStyle;rounded=0;orthogonalLoop=1;jettySize=auto;html=1;exitX=1;exitY=0.5;exitDx=0;exitDy=0;entryX=0;entryY=0.5;entryDx=0;entryDy=0;" parent="1" source="IQwHB2YpEbQMh792aqkD-14" target="IQwHB2YpEbQMh792aqkD-15" edge="1">
          <mxGeometry relative="1" as="geometry" />
        </mxCell>
        <mxCell id="IQwHB2YpEbQMh792aqkD-14" value="servis opreme" style="rounded=1;whiteSpace=wrap;html=1;" parent="1" vertex="1">
          <mxGeometry x="1660" y="-320" width="120" height="60" as="geometry" />
        </mxCell>
        <mxCell id="IQwHB2YpEbQMh792aqkD-20" style="edgeStyle=orthogonalEdgeStyle;rounded=0;orthogonalLoop=1;jettySize=auto;html=1;exitX=0.5;exitY=1;exitDx=0;exitDy=0;entryX=0.5;entryY=0;entryDx=0;entryDy=0;" parent="1" source="IQwHB2YpEbQMh792aqkD-15" target="IQwHB2YpEbQMh792aqkD-19" edge="1">
          <mxGeometry relative="1" as="geometry" />
        </mxCell>
        <mxCell id="IQwHB2YpEbQMh792aqkD-40" style="edgeStyle=orthogonalEdgeStyle;rounded=0;orthogonalLoop=1;jettySize=auto;html=1;exitX=0.5;exitY=0;exitDx=0;exitDy=0;fillColor=#f8cecc;strokeColor=#b85450;" parent="1" source="IQwHB2YpEbQMh792aqkD-15" edge="1">
          <mxGeometry relative="1" as="geometry">
            <mxPoint x="1890" y="-390" as="targetPoint" />
          </mxGeometry>
        </mxCell>
        <mxCell id="IQwHB2YpEbQMh792aqkD-15" value="da li je mogu훶&lt;div&gt;servis&lt;/div&gt;" style="rhombus;whiteSpace=wrap;html=1;" parent="1" vertex="1">
          <mxGeometry x="1850" y="-330" width="80" height="80" as="geometry" />
        </mxCell>
        <mxCell id="IQwHB2YpEbQMh792aqkD-22" style="edgeStyle=orthogonalEdgeStyle;rounded=0;orthogonalLoop=1;jettySize=auto;html=1;exitX=0.5;exitY=1;exitDx=0;exitDy=0;entryX=0.5;entryY=0;entryDx=0;entryDy=0;" parent="1" source="IQwHB2YpEbQMh792aqkD-16" target="IQwHB2YpEbQMh792aqkD-17" edge="1">
          <mxGeometry relative="1" as="geometry" />
        </mxCell>
        <mxCell id="IQwHB2YpEbQMh792aqkD-31" style="edgeStyle=orthogonalEdgeStyle;rounded=0;orthogonalLoop=1;jettySize=auto;html=1;exitX=1;exitY=0.5;exitDx=0;exitDy=0;" parent="1" source="IQwHB2YpEbQMh792aqkD-16" target="IQwHB2YpEbQMh792aqkD-27" edge="1">
          <mxGeometry relative="1" as="geometry" />
        </mxCell>
        <mxCell id="IQwHB2YpEbQMh792aqkD-16" value="da li je treba zamena gumica" style="rhombus;whiteSpace=wrap;html=1;" parent="1" vertex="1">
          <mxGeometry x="1850" y="-120" width="80" height="80" as="geometry" />
        </mxCell>
        <mxCell id="IQwHB2YpEbQMh792aqkD-23" style="edgeStyle=orthogonalEdgeStyle;rounded=0;orthogonalLoop=1;jettySize=auto;html=1;exitX=0.5;exitY=1;exitDx=0;exitDy=0;entryX=0.5;entryY=0;entryDx=0;entryDy=0;" parent="1" source="IQwHB2YpEbQMh792aqkD-17" target="IQwHB2YpEbQMh792aqkD-18" edge="1">
          <mxGeometry relative="1" as="geometry" />
        </mxCell>
        <mxCell id="IQwHB2YpEbQMh792aqkD-30" style="edgeStyle=orthogonalEdgeStyle;rounded=0;orthogonalLoop=1;jettySize=auto;html=1;exitX=1;exitY=0.5;exitDx=0;exitDy=0;entryX=0;entryY=0.5;entryDx=0;entryDy=0;" parent="1" source="IQwHB2YpEbQMh792aqkD-17" target="IQwHB2YpEbQMh792aqkD-26" edge="1">
          <mxGeometry relative="1" as="geometry" />
        </mxCell>
        <mxCell id="IQwHB2YpEbQMh792aqkD-17" value="da li je treba zamena&lt;div&gt;opruge&lt;/div&gt;" style="rhombus;whiteSpace=wrap;html=1;" parent="1" vertex="1">
          <mxGeometry x="1850" y="-20" width="80" height="80" as="geometry" />
        </mxCell>
        <mxCell id="IQwHB2YpEbQMh792aqkD-29" style="edgeStyle=orthogonalEdgeStyle;rounded=0;orthogonalLoop=1;jettySize=auto;html=1;exitX=1;exitY=0.5;exitDx=0;exitDy=0;entryX=0;entryY=0.5;entryDx=0;entryDy=0;" parent="1" source="IQwHB2YpEbQMh792aqkD-18" target="IQwHB2YpEbQMh792aqkD-28" edge="1">
          <mxGeometry relative="1" as="geometry" />
        </mxCell>
        <mxCell id="IQwHB2YpEbQMh792aqkD-34" style="edgeStyle=orthogonalEdgeStyle;rounded=0;orthogonalLoop=1;jettySize=auto;html=1;exitX=0.5;exitY=1;exitDx=0;exitDy=0;" parent="1" source="IQwHB2YpEbQMh792aqkD-18" edge="1">
          <mxGeometry relative="1" as="geometry">
            <mxPoint x="1570" y="-360" as="targetPoint" />
            <Array as="points">
              <mxPoint x="1890" y="190" />
              <mxPoint x="2130" y="190" />
              <mxPoint x="2130" y="-360" />
              <mxPoint x="1570" y="-360" />
            </Array>
          </mxGeometry>
        </mxCell>
        <mxCell id="IQwHB2YpEbQMh792aqkD-18" value="da li je treba&amp;nbsp;&lt;div&gt;X + n&lt;/div&gt;&lt;div&gt;deo&lt;/div&gt;" style="rhombus;whiteSpace=wrap;html=1;" parent="1" vertex="1">
          <mxGeometry x="1850" y="90" width="80" height="80" as="geometry" />
        </mxCell>
        <mxCell id="IQwHB2YpEbQMh792aqkD-21" style="edgeStyle=orthogonalEdgeStyle;rounded=0;orthogonalLoop=1;jettySize=auto;html=1;exitX=0.5;exitY=1;exitDx=0;exitDy=0;entryX=0.5;entryY=0;entryDx=0;entryDy=0;" parent="1" source="IQwHB2YpEbQMh792aqkD-19" target="IQwHB2YpEbQMh792aqkD-16" edge="1">
          <mxGeometry relative="1" as="geometry" />
        </mxCell>
        <mxCell id="IQwHB2YpEbQMh792aqkD-32" style="edgeStyle=orthogonalEdgeStyle;rounded=0;orthogonalLoop=1;jettySize=auto;html=1;exitX=1;exitY=0.5;exitDx=0;exitDy=0;entryX=0;entryY=0.5;entryDx=0;entryDy=0;" parent="1" source="IQwHB2YpEbQMh792aqkD-19" target="IQwHB2YpEbQMh792aqkD-24" edge="1">
          <mxGeometry relative="1" as="geometry" />
        </mxCell>
        <mxCell id="IQwHB2YpEbQMh792aqkD-19" value="da li je treba&amp;nbsp;&lt;div&gt;훾i큄훶enje&lt;/div&gt;" style="rhombus;whiteSpace=wrap;html=1;" parent="1" vertex="1">
          <mxGeometry x="1850" y="-220" width="80" height="80" as="geometry" />
        </mxCell>
        <mxCell id="IQwHB2YpEbQMh792aqkD-39" style="edgeStyle=orthogonalEdgeStyle;rounded=0;orthogonalLoop=1;jettySize=auto;html=1;exitX=1;exitY=0.5;exitDx=0;exitDy=0;" parent="1" source="IQwHB2YpEbQMh792aqkD-24" edge="1">
          <mxGeometry relative="1" as="geometry">
            <mxPoint x="2130" y="-180" as="targetPoint" />
          </mxGeometry>
        </mxCell>
        <mxCell id="IQwHB2YpEbQMh792aqkD-24" value="o훾istiti" style="rounded=1;whiteSpace=wrap;html=1;" parent="1" vertex="1">
          <mxGeometry x="1970" y="-200" width="80" height="40" as="geometry" />
        </mxCell>
        <mxCell id="IQwHB2YpEbQMh792aqkD-36" style="edgeStyle=orthogonalEdgeStyle;rounded=0;orthogonalLoop=1;jettySize=auto;html=1;exitX=1;exitY=0.5;exitDx=0;exitDy=0;" parent="1" source="IQwHB2YpEbQMh792aqkD-26" edge="1">
          <mxGeometry relative="1" as="geometry">
            <mxPoint x="2130" y="20" as="targetPoint" />
          </mxGeometry>
        </mxCell>
        <mxCell id="IQwHB2YpEbQMh792aqkD-26" value="zamena opruge" style="rounded=1;whiteSpace=wrap;html=1;" parent="1" vertex="1">
          <mxGeometry x="1970" width="80" height="40" as="geometry" />
        </mxCell>
        <mxCell id="IQwHB2YpEbQMh792aqkD-37" style="edgeStyle=orthogonalEdgeStyle;rounded=0;orthogonalLoop=1;jettySize=auto;html=1;exitX=1;exitY=0.5;exitDx=0;exitDy=0;" parent="1" source="IQwHB2YpEbQMh792aqkD-27" edge="1">
          <mxGeometry relative="1" as="geometry">
            <mxPoint x="2130" y="-80" as="targetPoint" />
          </mxGeometry>
        </mxCell>
        <mxCell id="IQwHB2YpEbQMh792aqkD-27" value="zamena gumice" style="rounded=1;whiteSpace=wrap;html=1;" parent="1" vertex="1">
          <mxGeometry x="1970" y="-100" width="80" height="40" as="geometry" />
        </mxCell>
        <mxCell id="IQwHB2YpEbQMh792aqkD-35" style="edgeStyle=orthogonalEdgeStyle;rounded=0;orthogonalLoop=1;jettySize=auto;html=1;exitX=1;exitY=0.5;exitDx=0;exitDy=0;" parent="1" source="IQwHB2YpEbQMh792aqkD-28" edge="1">
          <mxGeometry relative="1" as="geometry">
            <mxPoint x="2130" y="130" as="targetPoint" />
          </mxGeometry>
        </mxCell>
        <mxCell id="IQwHB2YpEbQMh792aqkD-28" value="zamena X + n dela" style="rounded=1;whiteSpace=wrap;html=1;" parent="1" vertex="1">
          <mxGeometry x="1970" y="110" width="80" height="40" as="geometry" />
        </mxCell>
        <mxCell id="IQwHB2YpEbQMh792aqkD-47" value="oprema spremna" style="ellipse;whiteSpace=wrap;html=1;" parent="1" vertex="1">
          <mxGeometry x="1510" y="220" width="120" height="80" as="geometry" />
        </mxCell>
        <mxCell id="IQwHB2YpEbQMh792aqkD-54" style="edgeStyle=orthogonalEdgeStyle;rounded=0;orthogonalLoop=1;jettySize=auto;html=1;exitX=1;exitY=0.5;exitDx=0;exitDy=0;entryX=0;entryY=0.5;entryDx=0;entryDy=0;fillColor=#f8cecc;strokeColor=#b85450;" parent="1" source="IQwHB2YpEbQMh792aqkD-49" target="IQwHB2YpEbQMh792aqkD-50" edge="1">
          <mxGeometry relative="1" as="geometry" />
        </mxCell>
        <mxCell id="IQwHB2YpEbQMh792aqkD-58" style="edgeStyle=orthogonalEdgeStyle;rounded=0;orthogonalLoop=1;jettySize=auto;html=1;exitX=0.5;exitY=1;exitDx=0;exitDy=0;entryX=0.5;entryY=0;entryDx=0;entryDy=0;fillColor=#d5e8d4;strokeColor=#82b366;" parent="1" source="IQwHB2YpEbQMh792aqkD-49" target="IQwHB2YpEbQMh792aqkD-47" edge="1">
          <mxGeometry relative="1" as="geometry" />
        </mxCell>
        <mxCell id="IQwHB2YpEbQMh792aqkD-49" value="oprema atestirana" style="rhombus;whiteSpace=wrap;html=1;" parent="1" vertex="1">
          <mxGeometry x="1520" y="-200" width="100" height="100" as="geometry" />
        </mxCell>
        <mxCell id="IQwHB2YpEbQMh792aqkD-56" style="edgeStyle=orthogonalEdgeStyle;rounded=0;orthogonalLoop=1;jettySize=auto;html=1;exitX=0.5;exitY=1;exitDx=0;exitDy=0;entryX=0.5;entryY=0;entryDx=0;entryDy=0;fillColor=#d5e8d4;strokeColor=#82b366;" parent="1" source="IQwHB2YpEbQMh792aqkD-50" target="IQwHB2YpEbQMh792aqkD-51" edge="1">
          <mxGeometry relative="1" as="geometry" />
        </mxCell>
        <mxCell id="IQwHB2YpEbQMh792aqkD-63" style="edgeStyle=orthogonalEdgeStyle;rounded=0;orthogonalLoop=1;jettySize=auto;html=1;exitX=1;exitY=0.5;exitDx=0;exitDy=0;fillColor=#f8cecc;strokeColor=#b85450;" parent="1" source="IQwHB2YpEbQMh792aqkD-50" edge="1">
          <mxGeometry relative="1" as="geometry">
            <mxPoint x="1790" y="-150" as="targetPoint" />
          </mxGeometry>
        </mxCell>
        <mxCell id="IQwHB2YpEbQMh792aqkD-50" value="protivpo탑arna&lt;div&gt;za큄tita&lt;/div&gt;" style="rhombus;whiteSpace=wrap;html=1;" parent="1" vertex="1">
          <mxGeometry x="1670" y="-200" width="100" height="100" as="geometry" />
        </mxCell>
        <mxCell id="IQwHB2YpEbQMh792aqkD-57" style="edgeStyle=orthogonalEdgeStyle;rounded=0;orthogonalLoop=1;jettySize=auto;html=1;exitX=0.5;exitY=1;exitDx=0;exitDy=0;entryX=0.5;entryY=0;entryDx=0;entryDy=0;fillColor=#d5e8d4;strokeColor=#82b366;" parent="1" source="IQwHB2YpEbQMh792aqkD-51" target="IQwHB2YpEbQMh792aqkD-53" edge="1">
          <mxGeometry relative="1" as="geometry" />
        </mxCell>
        <mxCell id="IQwHB2YpEbQMh792aqkD-62" style="edgeStyle=orthogonalEdgeStyle;rounded=0;orthogonalLoop=1;jettySize=auto;html=1;exitX=1;exitY=0.5;exitDx=0;exitDy=0;fillColor=#f8cecc;strokeColor=#b85450;" parent="1" source="IQwHB2YpEbQMh792aqkD-51" edge="1">
          <mxGeometry relative="1" as="geometry">
            <mxPoint x="1790" y="-10" as="targetPoint" />
          </mxGeometry>
        </mxCell>
        <mxCell id="IQwHB2YpEbQMh792aqkD-51" value="vodonepropusna&lt;div&gt;za큄tita&lt;/div&gt;" style="rhombus;whiteSpace=wrap;html=1;" parent="1" vertex="1">
          <mxGeometry x="1670" y="-60" width="100" height="100" as="geometry" />
        </mxCell>
        <mxCell id="IQwHB2YpEbQMh792aqkD-59" style="edgeStyle=orthogonalEdgeStyle;rounded=0;orthogonalLoop=1;jettySize=auto;html=1;exitX=0;exitY=0.5;exitDx=0;exitDy=0;fillColor=#d5e8d4;strokeColor=#82b366;" parent="1" source="IQwHB2YpEbQMh792aqkD-53" edge="1">
          <mxGeometry relative="1" as="geometry">
            <mxPoint x="1570" y="130" as="targetPoint" />
          </mxGeometry>
        </mxCell>
        <mxCell id="IQwHB2YpEbQMh792aqkD-60" style="edgeStyle=orthogonalEdgeStyle;rounded=0;orthogonalLoop=1;jettySize=auto;html=1;exitX=1;exitY=0.5;exitDx=0;exitDy=0;fillColor=#f8cecc;strokeColor=#b85450;" parent="1" source="IQwHB2YpEbQMh792aqkD-53" edge="1">
          <mxGeometry relative="1" as="geometry">
            <mxPoint x="1570" y="-220" as="targetPoint" />
            <Array as="points">
              <mxPoint x="1790" y="130" />
              <mxPoint x="1790" y="-220" />
            </Array>
          </mxGeometry>
        </mxCell>
        <mxCell id="IQwHB2YpEbQMh792aqkD-53" value="antistatik&lt;div&gt;za큄tita&lt;/div&gt;" style="rhombus;whiteSpace=wrap;html=1;" parent="1" vertex="1">
          <mxGeometry x="1670" y="80" width="100" height="100" as="geometry" />
        </mxCell>
        <mxCell id="IQwHB2YpEbQMh792aqkD-66" style="edgeStyle=orthogonalEdgeStyle;rounded=0;orthogonalLoop=1;jettySize=auto;html=1;exitX=0.5;exitY=0.888;exitDx=0;exitDy=0;entryX=0.5;entryY=0;entryDx=0;entryDy=0;exitPerimeter=0;" parent="1" source="IQwHB2YpEbQMh792aqkD-65" target="IQwHB2YpEbQMh792aqkD-9" edge="1">
          <mxGeometry relative="1" as="geometry" />
        </mxCell>
        <mxCell id="IQwHB2YpEbQMh792aqkD-65" value="oprema ispravna" style="shape=document;whiteSpace=wrap;html=1;boundedLbl=1;" parent="1" vertex="1">
          <mxGeometry x="100" y="-220" width="120" height="80" as="geometry" />
        </mxCell>
        <mxCell id="IQwHB2YpEbQMh792aqkD-80" style="edgeStyle=orthogonalEdgeStyle;rounded=0;orthogonalLoop=1;jettySize=auto;html=1;exitX=1;exitY=0.5;exitDx=0;exitDy=0;entryX=0;entryY=0.5;entryDx=0;entryDy=0;" parent="1" source="IQwHB2YpEbQMh792aqkD-68" target="IQwHB2YpEbQMh792aqkD-70" edge="1">
          <mxGeometry relative="1" as="geometry" />
        </mxCell>
        <mxCell id="IQwHB2YpEbQMh792aqkD-68" value="provera kamiona" style="shape=document;whiteSpace=wrap;html=1;boundedLbl=1;" parent="1" vertex="1">
          <mxGeometry x="2930" y="-590" width="120" height="80" as="geometry" />
        </mxCell>
        <mxCell id="IQwHB2YpEbQMh792aqkD-81" style="edgeStyle=orthogonalEdgeStyle;rounded=0;orthogonalLoop=1;jettySize=auto;html=1;exitX=1;exitY=0.5;exitDx=0;exitDy=0;entryX=0;entryY=0.5;entryDx=0;entryDy=0;" parent="1" source="IQwHB2YpEbQMh792aqkD-70" target="IQwHB2YpEbQMh792aqkD-71" edge="1">
          <mxGeometry relative="1" as="geometry" />
        </mxCell>
        <mxCell id="IQwHB2YpEbQMh792aqkD-70" value="da li je&lt;div&gt;potreban&lt;/div&gt;&lt;div&gt;vatrogasni&lt;/div&gt;&lt;div&gt;kamion&lt;/div&gt;" style="rhombus;whiteSpace=wrap;html=1;" parent="1" vertex="1">
          <mxGeometry x="3130" y="-605" width="110" height="110" as="geometry" />
        </mxCell>
        <mxCell id="IQwHB2YpEbQMh792aqkD-82" style="edgeStyle=orthogonalEdgeStyle;rounded=0;orthogonalLoop=1;jettySize=auto;html=1;exitX=1;exitY=0.5;exitDx=0;exitDy=0;entryX=0;entryY=0.5;entryDx=0;entryDy=0;" parent="1" source="IQwHB2YpEbQMh792aqkD-71" target="IQwHB2YpEbQMh792aqkD-72" edge="1">
          <mxGeometry relative="1" as="geometry" />
        </mxCell>
        <mxCell id="IQwHB2YpEbQMh792aqkD-93" style="edgeStyle=orthogonalEdgeStyle;rounded=0;orthogonalLoop=1;jettySize=auto;html=1;exitX=0.5;exitY=1;exitDx=0;exitDy=0;entryX=0.5;entryY=0;entryDx=0;entryDy=0;" parent="1" source="IQwHB2YpEbQMh792aqkD-71" target="IQwHB2YpEbQMh792aqkD-90" edge="1">
          <mxGeometry relative="1" as="geometry" />
        </mxCell>
        <mxCell id="IQwHB2YpEbQMh792aqkD-71" value="da li ima goriva" style="rhombus;whiteSpace=wrap;html=1;" parent="1" vertex="1">
          <mxGeometry x="3295" y="-600" width="100" height="100" as="geometry" />
        </mxCell>
        <mxCell id="IQwHB2YpEbQMh792aqkD-83" style="edgeStyle=orthogonalEdgeStyle;rounded=0;orthogonalLoop=1;jettySize=auto;html=1;exitX=1;exitY=0.5;exitDx=0;exitDy=0;entryX=0;entryY=0.5;entryDx=0;entryDy=0;" parent="1" source="IQwHB2YpEbQMh792aqkD-72" edge="1">
          <mxGeometry relative="1" as="geometry">
            <mxPoint x="3576" y="-550" as="targetPoint" />
          </mxGeometry>
        </mxCell>
        <mxCell id="nbfr8xlKrn3ljvIZ1F1--4" style="edgeStyle=orthogonalEdgeStyle;rounded=0;orthogonalLoop=1;jettySize=auto;html=1;exitX=0.5;exitY=1;exitDx=0;exitDy=0;entryX=0.5;entryY=0;entryDx=0;entryDy=0;" edge="1" parent="1" source="IQwHB2YpEbQMh792aqkD-72" target="IQwHB2YpEbQMh792aqkD-91">
          <mxGeometry relative="1" as="geometry" />
        </mxCell>
        <mxCell id="IQwHB2YpEbQMh792aqkD-72" value="da li ima&amp;nbsp;&lt;div&gt;ulja u motoru&lt;/div&gt;" style="rhombus;whiteSpace=wrap;html=1;" parent="1" vertex="1">
          <mxGeometry x="3435" y="-600" width="100" height="100" as="geometry" />
        </mxCell>
        <mxCell id="IQwHB2YpEbQMh792aqkD-85" style="edgeStyle=orthogonalEdgeStyle;rounded=0;orthogonalLoop=1;jettySize=auto;html=1;exitX=1;exitY=0.5;exitDx=0;exitDy=0;entryX=0;entryY=0.5;entryDx=0;entryDy=0;" parent="1" source="IQwHB2YpEbQMh792aqkD-74" target="IQwHB2YpEbQMh792aqkD-75" edge="1">
          <mxGeometry relative="1" as="geometry" />
        </mxCell>
        <mxCell id="IQwHB2YpEbQMh792aqkD-74" value="da li je dobar&lt;div&gt;pritisak u gumam&lt;/div&gt;" style="rhombus;whiteSpace=wrap;html=1;" parent="1" vertex="1">
          <mxGeometry x="3580" y="-600" width="100" height="100" as="geometry" />
        </mxCell>
        <mxCell id="IQwHB2YpEbQMh792aqkD-86" style="edgeStyle=orthogonalEdgeStyle;rounded=0;orthogonalLoop=1;jettySize=auto;html=1;exitX=1;exitY=0.5;exitDx=0;exitDy=0;entryX=0;entryY=0.5;entryDx=0;entryDy=0;" parent="1" source="IQwHB2YpEbQMh792aqkD-75" target="IQwHB2YpEbQMh792aqkD-76" edge="1">
          <mxGeometry relative="1" as="geometry" />
        </mxCell>
        <mxCell id="IQwHB2YpEbQMh792aqkD-75" value="da li radi klima" style="rhombus;whiteSpace=wrap;html=1;" parent="1" vertex="1">
          <mxGeometry x="3720" y="-600" width="100" height="100" as="geometry" />
        </mxCell>
        <mxCell id="IQwHB2YpEbQMh792aqkD-87" style="edgeStyle=orthogonalEdgeStyle;rounded=0;orthogonalLoop=1;jettySize=auto;html=1;exitX=1;exitY=0.5;exitDx=0;exitDy=0;entryX=0;entryY=0.5;entryDx=0;entryDy=0;" parent="1" source="IQwHB2YpEbQMh792aqkD-76" target="IQwHB2YpEbQMh792aqkD-77" edge="1">
          <mxGeometry relative="1" as="geometry" />
        </mxCell>
        <mxCell id="IQwHB2YpEbQMh792aqkD-76" value="da li pali" style="rhombus;whiteSpace=wrap;html=1;" parent="1" vertex="1">
          <mxGeometry x="3860" y="-600" width="100" height="100" as="geometry" />
        </mxCell>
        <mxCell id="IQwHB2YpEbQMh792aqkD-88" style="edgeStyle=orthogonalEdgeStyle;rounded=0;orthogonalLoop=1;jettySize=auto;html=1;exitX=1;exitY=0.5;exitDx=0;exitDy=0;entryX=0;entryY=0.5;entryDx=0;entryDy=0;" parent="1" source="IQwHB2YpEbQMh792aqkD-77" target="IQwHB2YpEbQMh792aqkD-78" edge="1">
          <mxGeometry relative="1" as="geometry" />
        </mxCell>
        <mxCell id="IQwHB2YpEbQMh792aqkD-77" value="da li radi signalizacija" style="rhombus;whiteSpace=wrap;html=1;" parent="1" vertex="1">
          <mxGeometry x="4000" y="-600" width="100" height="100" as="geometry" />
        </mxCell>
        <mxCell id="IQwHB2YpEbQMh792aqkD-89" style="edgeStyle=orthogonalEdgeStyle;rounded=0;orthogonalLoop=1;jettySize=auto;html=1;exitX=1;exitY=0.5;exitDx=0;exitDy=0;entryX=0;entryY=0.5;entryDx=0;entryDy=0;" parent="1" source="IQwHB2YpEbQMh792aqkD-78" target="IQwHB2YpEbQMh792aqkD-79" edge="1">
          <mxGeometry relative="1" as="geometry" />
        </mxCell>
        <mxCell id="IQwHB2YpEbQMh792aqkD-78" value="da li je&amp;nbsp;&lt;span style=&quot;background-color: initial;&quot;&gt;naduvao vazduh&lt;/span&gt;" style="rhombus;whiteSpace=wrap;html=1;" parent="1" vertex="1">
          <mxGeometry x="4140" y="-600" width="100" height="100" as="geometry" />
        </mxCell>
        <mxCell id="IQwHB2YpEbQMh792aqkD-79" value="kamion spreman" style="ellipse;whiteSpace=wrap;html=1;" parent="1" vertex="1">
          <mxGeometry x="4285" y="-590" width="120" height="80" as="geometry" />
        </mxCell>
        <mxCell id="IQwHB2YpEbQMh792aqkD-94" style="edgeStyle=orthogonalEdgeStyle;rounded=0;orthogonalLoop=1;jettySize=auto;html=1;exitX=0.5;exitY=1;exitDx=0;exitDy=0;entryX=0.5;entryY=0;entryDx=0;entryDy=0;" parent="1" source="IQwHB2YpEbQMh792aqkD-90" target="IQwHB2YpEbQMh792aqkD-92" edge="1">
          <mxGeometry relative="1" as="geometry" />
        </mxCell>
        <mxCell id="IQwHB2YpEbQMh792aqkD-90" value="sipaj gorivo" style="rounded=1;whiteSpace=wrap;html=1;" parent="1" vertex="1">
          <mxGeometry x="3300" y="-440" width="90" height="45" as="geometry" />
        </mxCell>
        <mxCell id="nbfr8xlKrn3ljvIZ1F1--5" style="edgeStyle=orthogonalEdgeStyle;rounded=0;orthogonalLoop=1;jettySize=auto;html=1;exitX=0.5;exitY=1;exitDx=0;exitDy=0;entryX=0.5;entryY=0;entryDx=0;entryDy=0;" edge="1" parent="1" source="IQwHB2YpEbQMh792aqkD-91" target="IQwHB2YpEbQMh792aqkD-99">
          <mxGeometry relative="1" as="geometry" />
        </mxCell>
        <mxCell id="IQwHB2YpEbQMh792aqkD-91" value="sipaj ulja" style="rounded=1;whiteSpace=wrap;html=1;" parent="1" vertex="1">
          <mxGeometry x="3440" y="-440" width="90" height="45" as="geometry" />
        </mxCell>
        <mxCell id="IQwHB2YpEbQMh792aqkD-95" style="edgeStyle=orthogonalEdgeStyle;rounded=0;orthogonalLoop=1;jettySize=auto;html=1;exitX=0;exitY=0.5;exitDx=0;exitDy=0;entryX=0;entryY=0.5;entryDx=0;entryDy=0;fillColor=#f8cecc;strokeColor=#b85450;" parent="1" source="IQwHB2YpEbQMh792aqkD-92" target="IQwHB2YpEbQMh792aqkD-90" edge="1">
          <mxGeometry relative="1" as="geometry" />
        </mxCell>
        <mxCell id="IQwHB2YpEbQMh792aqkD-98" style="edgeStyle=orthogonalEdgeStyle;rounded=0;orthogonalLoop=1;jettySize=auto;html=1;exitX=0.5;exitY=1;exitDx=0;exitDy=0;entryX=0.5;entryY=0;entryDx=0;entryDy=0;" parent="1" source="IQwHB2YpEbQMh792aqkD-92" target="IQwHB2YpEbQMh792aqkD-96" edge="1">
          <mxGeometry relative="1" as="geometry" />
        </mxCell>
        <mxCell id="IQwHB2YpEbQMh792aqkD-92" value="da li je pun rezervoar" style="rhombus;whiteSpace=wrap;html=1;" parent="1" vertex="1">
          <mxGeometry x="3305" y="-350" width="80" height="80" as="geometry" />
        </mxCell>
        <mxCell id="IQwHB2YpEbQMh792aqkD-97" style="edgeStyle=orthogonalEdgeStyle;rounded=0;orthogonalLoop=1;jettySize=auto;html=1;exitX=0;exitY=0.5;exitDx=0;exitDy=0;" parent="1" source="IQwHB2YpEbQMh792aqkD-96" edge="1">
          <mxGeometry relative="1" as="geometry">
            <mxPoint x="3260" y="-550" as="targetPoint" />
          </mxGeometry>
        </mxCell>
        <mxCell id="IQwHB2YpEbQMh792aqkD-96" value="rezervoar&lt;div&gt;pun&lt;/div&gt;" style="ellipse;whiteSpace=wrap;html=1;" parent="1" vertex="1">
          <mxGeometry x="3300" y="-240" width="90" height="60" as="geometry" />
        </mxCell>
        <mxCell id="nbfr8xlKrn3ljvIZ1F1--2" style="edgeStyle=orthogonalEdgeStyle;rounded=0;orthogonalLoop=1;jettySize=auto;html=1;exitX=0;exitY=0.5;exitDx=0;exitDy=0;entryX=0;entryY=0.25;entryDx=0;entryDy=0;fillColor=#f8cecc;strokeColor=#b85450;" edge="1" parent="1" source="IQwHB2YpEbQMh792aqkD-99" target="IQwHB2YpEbQMh792aqkD-91">
          <mxGeometry relative="1" as="geometry" />
        </mxCell>
        <mxCell id="nbfr8xlKrn3ljvIZ1F1--6" style="edgeStyle=orthogonalEdgeStyle;rounded=0;orthogonalLoop=1;jettySize=auto;html=1;exitX=0.5;exitY=1;exitDx=0;exitDy=0;entryX=0.5;entryY=0;entryDx=0;entryDy=0;" edge="1" parent="1" source="IQwHB2YpEbQMh792aqkD-99" target="IQwHB2YpEbQMh792aqkD-100">
          <mxGeometry relative="1" as="geometry" />
        </mxCell>
        <mxCell id="IQwHB2YpEbQMh792aqkD-99" value="da li je nivo na MAX" style="rhombus;whiteSpace=wrap;html=1;" parent="1" vertex="1">
          <mxGeometry x="3445" y="-350" width="80" height="80" as="geometry" />
        </mxCell>
        <mxCell id="nbfr8xlKrn3ljvIZ1F1--3" style="edgeStyle=orthogonalEdgeStyle;rounded=0;orthogonalLoop=1;jettySize=auto;html=1;exitX=0;exitY=0.5;exitDx=0;exitDy=0;" edge="1" parent="1" source="IQwHB2YpEbQMh792aqkD-100">
          <mxGeometry relative="1" as="geometry">
            <mxPoint x="3410" y="-550" as="targetPoint" />
          </mxGeometry>
        </mxCell>
        <mxCell id="IQwHB2YpEbQMh792aqkD-100" value="rezervoar&lt;div&gt;pun&lt;/div&gt;" style="ellipse;whiteSpace=wrap;html=1;" parent="1" vertex="1">
          <mxGeometry x="3440" y="-240" width="90" height="60" as="geometry" />
        </mxCell>
        <mxCell id="nbfr8xlKrn3ljvIZ1F1--11" style="edgeStyle=orthogonalEdgeStyle;rounded=0;orthogonalLoop=1;jettySize=auto;html=1;exitX=0.5;exitY=1;exitDx=0;exitDy=0;entryX=0.5;entryY=0;entryDx=0;entryDy=0;" edge="1" parent="1" source="nbfr8xlKrn3ljvIZ1F1--12" target="nbfr8xlKrn3ljvIZ1F1--14">
          <mxGeometry relative="1" as="geometry" />
        </mxCell>
        <mxCell id="nbfr8xlKrn3ljvIZ1F1--12" value="start" style="ellipse;whiteSpace=wrap;html=1;" vertex="1" parent="1">
          <mxGeometry x="1400" y="310" width="120" height="80" as="geometry" />
        </mxCell>
        <mxCell id="nbfr8xlKrn3ljvIZ1F1--13" style="edgeStyle=orthogonalEdgeStyle;rounded=0;orthogonalLoop=1;jettySize=auto;html=1;exitX=0.5;exitY=1;exitDx=0;exitDy=0;entryX=0.5;entryY=0;entryDx=0;entryDy=0;" edge="1" parent="1" source="nbfr8xlKrn3ljvIZ1F1--14" target="nbfr8xlKrn3ljvIZ1F1--17">
          <mxGeometry relative="1" as="geometry" />
        </mxCell>
        <mxCell id="nbfr8xlKrn3ljvIZ1F1--14" value="ekipa dezura" style="rounded=1;whiteSpace=wrap;html=1;" vertex="1" parent="1">
          <mxGeometry x="1400" y="450" width="120" height="60" as="geometry" />
        </mxCell>
        <mxCell id="nbfr8xlKrn3ljvIZ1F1--15" style="edgeStyle=orthogonalEdgeStyle;rounded=0;orthogonalLoop=1;jettySize=auto;html=1;exitX=1;exitY=0.5;exitDx=0;exitDy=0;" edge="1" parent="1" source="nbfr8xlKrn3ljvIZ1F1--17">
          <mxGeometry relative="1" as="geometry">
            <mxPoint x="1460" y="540" as="targetPoint" />
          </mxGeometry>
        </mxCell>
        <mxCell id="nbfr8xlKrn3ljvIZ1F1--16" style="edgeStyle=orthogonalEdgeStyle;rounded=0;orthogonalLoop=1;jettySize=auto;html=1;exitX=0.5;exitY=1;exitDx=0;exitDy=0;entryX=0.5;entryY=0;entryDx=0;entryDy=0;" edge="1" parent="1" source="nbfr8xlKrn3ljvIZ1F1--17" target="nbfr8xlKrn3ljvIZ1F1--19">
          <mxGeometry relative="1" as="geometry" />
        </mxCell>
        <mxCell id="nbfr8xlKrn3ljvIZ1F1--17" value="da li iima poziva&lt;div&gt;za spasavanje&lt;/div&gt;" style="rhombus;whiteSpace=wrap;html=1;" vertex="1" parent="1">
          <mxGeometry x="1420" y="560" width="80" height="80" as="geometry" />
        </mxCell>
        <mxCell id="nbfr8xlKrn3ljvIZ1F1--18" style="edgeStyle=orthogonalEdgeStyle;rounded=0;orthogonalLoop=1;jettySize=auto;html=1;exitX=0.5;exitY=1;exitDx=0;exitDy=0;entryX=0.5;entryY=0;entryDx=0;entryDy=0;" edge="1" parent="1" source="nbfr8xlKrn3ljvIZ1F1--19" target="nbfr8xlKrn3ljvIZ1F1--24">
          <mxGeometry relative="1" as="geometry" />
        </mxCell>
        <mxCell id="nbfr8xlKrn3ljvIZ1F1--19" value="mobilizacija ekipe" style="rounded=1;whiteSpace=wrap;html=1;" vertex="1" parent="1">
          <mxGeometry x="1400" y="690" width="120" height="60" as="geometry" />
        </mxCell>
        <mxCell id="nbfr8xlKrn3ljvIZ1F1--20" style="edgeStyle=orthogonalEdgeStyle;rounded=0;orthogonalLoop=1;jettySize=auto;html=1;exitX=1;exitY=0.5;exitDx=0;exitDy=0;entryX=0;entryY=0.5;entryDx=0;entryDy=0;" edge="1" parent="1" source="nbfr8xlKrn3ljvIZ1F1--22" target="nbfr8xlKrn3ljvIZ1F1--27">
          <mxGeometry relative="1" as="geometry" />
        </mxCell>
        <mxCell id="nbfr8xlKrn3ljvIZ1F1--21" style="edgeStyle=orthogonalEdgeStyle;rounded=0;orthogonalLoop=1;jettySize=auto;html=1;exitX=0.5;exitY=1;exitDx=0;exitDy=0;entryX=0.5;entryY=0;entryDx=0;entryDy=0;" edge="1" parent="1" source="nbfr8xlKrn3ljvIZ1F1--22" target="nbfr8xlKrn3ljvIZ1F1--38">
          <mxGeometry relative="1" as="geometry" />
        </mxCell>
        <mxCell id="nbfr8xlKrn3ljvIZ1F1--22" value="da li je&lt;div&gt;po탑ar&lt;/div&gt;" style="rhombus;whiteSpace=wrap;html=1;" vertex="1" parent="1">
          <mxGeometry x="1580" y="800" width="80" height="80" as="geometry" />
        </mxCell>
        <mxCell id="nbfr8xlKrn3ljvIZ1F1--23" style="edgeStyle=orthogonalEdgeStyle;rounded=0;orthogonalLoop=1;jettySize=auto;html=1;exitX=1;exitY=0.5;exitDx=0;exitDy=0;" edge="1" parent="1" source="nbfr8xlKrn3ljvIZ1F1--24" target="nbfr8xlKrn3ljvIZ1F1--22">
          <mxGeometry relative="1" as="geometry" />
        </mxCell>
        <mxCell id="nbfr8xlKrn3ljvIZ1F1--24" value="provera detalja&lt;div&gt;intervencije&lt;/div&gt;" style="rounded=1;whiteSpace=wrap;html=1;" vertex="1" parent="1">
          <mxGeometry x="1400" y="810" width="120" height="60" as="geometry" />
        </mxCell>
        <mxCell id="nbfr8xlKrn3ljvIZ1F1--25" style="edgeStyle=orthogonalEdgeStyle;rounded=0;orthogonalLoop=1;jettySize=auto;html=1;exitX=1;exitY=0.5;exitDx=0;exitDy=0;entryX=0;entryY=0.5;entryDx=0;entryDy=0;" edge="1" parent="1" source="nbfr8xlKrn3ljvIZ1F1--27" target="nbfr8xlKrn3ljvIZ1F1--30">
          <mxGeometry relative="1" as="geometry" />
        </mxCell>
        <mxCell id="nbfr8xlKrn3ljvIZ1F1--26" style="edgeStyle=orthogonalEdgeStyle;rounded=0;orthogonalLoop=1;jettySize=auto;html=1;exitX=0.5;exitY=1;exitDx=0;exitDy=0;entryX=0.5;entryY=0;entryDx=0;entryDy=0;" edge="1" parent="1" source="nbfr8xlKrn3ljvIZ1F1--27" target="nbfr8xlKrn3ljvIZ1F1--42">
          <mxGeometry relative="1" as="geometry" />
        </mxCell>
        <mxCell id="nbfr8xlKrn3ljvIZ1F1--27" value="da li je&lt;div&gt;poplava&lt;/div&gt;" style="rhombus;whiteSpace=wrap;html=1;" vertex="1" parent="1">
          <mxGeometry x="1700" y="800" width="80" height="80" as="geometry" />
        </mxCell>
        <mxCell id="nbfr8xlKrn3ljvIZ1F1--28" style="edgeStyle=orthogonalEdgeStyle;rounded=0;orthogonalLoop=1;jettySize=auto;html=1;exitX=1;exitY=0.5;exitDx=0;exitDy=0;entryX=0;entryY=0.5;entryDx=0;entryDy=0;" edge="1" parent="1" source="nbfr8xlKrn3ljvIZ1F1--30" target="nbfr8xlKrn3ljvIZ1F1--33">
          <mxGeometry relative="1" as="geometry" />
        </mxCell>
        <mxCell id="nbfr8xlKrn3ljvIZ1F1--29" style="edgeStyle=orthogonalEdgeStyle;rounded=0;orthogonalLoop=1;jettySize=auto;html=1;exitX=0.5;exitY=1;exitDx=0;exitDy=0;entryX=0.5;entryY=0;entryDx=0;entryDy=0;" edge="1" parent="1" source="nbfr8xlKrn3ljvIZ1F1--30" target="nbfr8xlKrn3ljvIZ1F1--44">
          <mxGeometry relative="1" as="geometry" />
        </mxCell>
        <mxCell id="nbfr8xlKrn3ljvIZ1F1--30" value="da li je&lt;div&gt;zemljotres&lt;/div&gt;" style="rhombus;whiteSpace=wrap;html=1;" vertex="1" parent="1">
          <mxGeometry x="1820" y="800" width="80" height="80" as="geometry" />
        </mxCell>
        <mxCell id="nbfr8xlKrn3ljvIZ1F1--31" style="edgeStyle=orthogonalEdgeStyle;rounded=0;orthogonalLoop=1;jettySize=auto;html=1;exitX=1;exitY=0.5;exitDx=0;exitDy=0;entryX=0;entryY=0.5;entryDx=0;entryDy=0;" edge="1" parent="1" source="nbfr8xlKrn3ljvIZ1F1--33" target="nbfr8xlKrn3ljvIZ1F1--36">
          <mxGeometry relative="1" as="geometry" />
        </mxCell>
        <mxCell id="nbfr8xlKrn3ljvIZ1F1--32" style="edgeStyle=orthogonalEdgeStyle;rounded=0;orthogonalLoop=1;jettySize=auto;html=1;exitX=0.5;exitY=1;exitDx=0;exitDy=0;entryX=0.5;entryY=0;entryDx=0;entryDy=0;" edge="1" parent="1" source="nbfr8xlKrn3ljvIZ1F1--33" target="nbfr8xlKrn3ljvIZ1F1--46">
          <mxGeometry relative="1" as="geometry" />
        </mxCell>
        <mxCell id="nbfr8xlKrn3ljvIZ1F1--33" value="da li je&lt;div&gt;erupcija&lt;/div&gt;&lt;div&gt;vulkana&lt;/div&gt;" style="rhombus;whiteSpace=wrap;html=1;" vertex="1" parent="1">
          <mxGeometry x="1940" y="800" width="80" height="80" as="geometry" />
        </mxCell>
        <mxCell id="nbfr8xlKrn3ljvIZ1F1--34" style="edgeStyle=orthogonalEdgeStyle;rounded=0;orthogonalLoop=1;jettySize=auto;html=1;exitX=1;exitY=0.5;exitDx=0;exitDy=0;entryX=0;entryY=0.5;entryDx=0;entryDy=0;" edge="1" parent="1" source="nbfr8xlKrn3ljvIZ1F1--36" target="nbfr8xlKrn3ljvIZ1F1--40">
          <mxGeometry relative="1" as="geometry" />
        </mxCell>
        <mxCell id="nbfr8xlKrn3ljvIZ1F1--35" style="edgeStyle=orthogonalEdgeStyle;rounded=0;orthogonalLoop=1;jettySize=auto;html=1;exitX=0.5;exitY=1;exitDx=0;exitDy=0;entryX=0.5;entryY=0;entryDx=0;entryDy=0;" edge="1" parent="1" source="nbfr8xlKrn3ljvIZ1F1--36" target="nbfr8xlKrn3ljvIZ1F1--48">
          <mxGeometry relative="1" as="geometry" />
        </mxCell>
        <mxCell id="nbfr8xlKrn3ljvIZ1F1--36" value="da li je&lt;div&gt;udario&amp;nbsp;&lt;/div&gt;&lt;div&gt;meteor&lt;/div&gt;" style="rhombus;whiteSpace=wrap;html=1;" vertex="1" parent="1">
          <mxGeometry x="2060" y="800" width="80" height="80" as="geometry" />
        </mxCell>
        <mxCell id="nbfr8xlKrn3ljvIZ1F1--37" style="edgeStyle=orthogonalEdgeStyle;rounded=0;orthogonalLoop=1;jettySize=auto;html=1;exitX=1;exitY=0.5;exitDx=0;exitDy=0;" edge="1" parent="1" source="nbfr8xlKrn3ljvIZ1F1--38">
          <mxGeometry relative="1" as="geometry">
            <mxPoint x="1680" y="840" as="targetPoint" />
          </mxGeometry>
        </mxCell>
        <mxCell id="nbfr8xlKrn3ljvIZ1F1--38" value="uraditi sastanak o pojedina훾nosti zadatka" style="rounded=1;whiteSpace=wrap;html=1;" vertex="1" parent="1">
          <mxGeometry x="1580" y="920" width="80" height="80" as="geometry" />
        </mxCell>
        <mxCell id="nbfr8xlKrn3ljvIZ1F1--39" style="edgeStyle=orthogonalEdgeStyle;rounded=0;orthogonalLoop=1;jettySize=auto;html=1;exitX=0.5;exitY=1;exitDx=0;exitDy=0;entryX=1;entryY=0.5;entryDx=0;entryDy=0;" edge="1" parent="1" source="nbfr8xlKrn3ljvIZ1F1--40" target="nbfr8xlKrn3ljvIZ1F1--50">
          <mxGeometry relative="1" as="geometry" />
        </mxCell>
        <mxCell id="nbfr8xlKrn3ljvIZ1F1--40" value="obavestiti ekipu da&lt;div&gt;o훾ekuju&amp;nbsp;&lt;/div&gt;&lt;div&gt;neo훾ekivano&lt;/div&gt;" style="rounded=1;whiteSpace=wrap;html=1;" vertex="1" parent="1">
          <mxGeometry x="2180" y="810" width="120" height="60" as="geometry" />
        </mxCell>
        <mxCell id="nbfr8xlKrn3ljvIZ1F1--41" style="edgeStyle=orthogonalEdgeStyle;rounded=0;orthogonalLoop=1;jettySize=auto;html=1;exitX=1;exitY=0.5;exitDx=0;exitDy=0;" edge="1" parent="1" source="nbfr8xlKrn3ljvIZ1F1--42">
          <mxGeometry relative="1" as="geometry">
            <mxPoint x="1800" y="840" as="targetPoint" />
          </mxGeometry>
        </mxCell>
        <mxCell id="nbfr8xlKrn3ljvIZ1F1--42" value="uraditi sastanak o pojedina훾nosti zadatka" style="rounded=1;whiteSpace=wrap;html=1;" vertex="1" parent="1">
          <mxGeometry x="1700" y="920" width="80" height="80" as="geometry" />
        </mxCell>
        <mxCell id="nbfr8xlKrn3ljvIZ1F1--43" style="edgeStyle=orthogonalEdgeStyle;rounded=0;orthogonalLoop=1;jettySize=auto;html=1;exitX=1;exitY=0.5;exitDx=0;exitDy=0;" edge="1" parent="1" source="nbfr8xlKrn3ljvIZ1F1--44">
          <mxGeometry relative="1" as="geometry">
            <mxPoint x="1920" y="840" as="targetPoint" />
          </mxGeometry>
        </mxCell>
        <mxCell id="nbfr8xlKrn3ljvIZ1F1--44" value="uraditi sastanak o pojedina훾nosti zadatka" style="rounded=1;whiteSpace=wrap;html=1;" vertex="1" parent="1">
          <mxGeometry x="1820" y="920" width="80" height="80" as="geometry" />
        </mxCell>
        <mxCell id="nbfr8xlKrn3ljvIZ1F1--45" style="edgeStyle=orthogonalEdgeStyle;rounded=0;orthogonalLoop=1;jettySize=auto;html=1;exitX=1;exitY=0.5;exitDx=0;exitDy=0;" edge="1" parent="1" source="nbfr8xlKrn3ljvIZ1F1--46">
          <mxGeometry relative="1" as="geometry">
            <mxPoint x="2040" y="840" as="targetPoint" />
          </mxGeometry>
        </mxCell>
        <mxCell id="nbfr8xlKrn3ljvIZ1F1--46" value="uraditi sastanak o pojedina훾nosti zadatka" style="rounded=1;whiteSpace=wrap;html=1;" vertex="1" parent="1">
          <mxGeometry x="1940" y="920" width="80" height="80" as="geometry" />
        </mxCell>
        <mxCell id="nbfr8xlKrn3ljvIZ1F1--47" style="edgeStyle=orthogonalEdgeStyle;rounded=0;orthogonalLoop=1;jettySize=auto;html=1;exitX=1;exitY=0.5;exitDx=0;exitDy=0;" edge="1" parent="1" source="nbfr8xlKrn3ljvIZ1F1--48">
          <mxGeometry relative="1" as="geometry">
            <mxPoint x="2160" y="840" as="targetPoint" />
          </mxGeometry>
        </mxCell>
        <mxCell id="nbfr8xlKrn3ljvIZ1F1--48" value="uraditi sastanak o pojedina훾nosti zadatka" style="rounded=1;whiteSpace=wrap;html=1;" vertex="1" parent="1">
          <mxGeometry x="2060" y="920" width="80" height="80" as="geometry" />
        </mxCell>
        <mxCell id="nbfr8xlKrn3ljvIZ1F1--49" style="edgeStyle=orthogonalEdgeStyle;rounded=0;orthogonalLoop=1;jettySize=auto;html=1;exitX=0.5;exitY=1;exitDx=0;exitDy=0;entryX=0.5;entryY=0;entryDx=0;entryDy=0;" edge="1" parent="1" source="nbfr8xlKrn3ljvIZ1F1--50">
          <mxGeometry relative="1" as="geometry">
            <mxPoint x="1460" y="1140" as="targetPoint" />
          </mxGeometry>
        </mxCell>
        <mxCell id="nbfr8xlKrn3ljvIZ1F1--50" value="ekipa obave큄tena&lt;div&gt;o zadatku&lt;/div&gt;" style="rounded=1;whiteSpace=wrap;html=1;" vertex="1" parent="1">
          <mxGeometry x="1400" y="1050" width="120" height="60" as="geometry" />
        </mxCell>
        <mxCell id="nbfr8xlKrn3ljvIZ1F1--51" style="edgeStyle=orthogonalEdgeStyle;rounded=0;orthogonalLoop=1;jettySize=auto;html=1;exitX=1;exitY=0.5;exitDx=0;exitDy=0;fillColor=#f8cecc;strokeColor=#b85450;" edge="1" parent="1" source="nbfr8xlKrn3ljvIZ1F1--52">
          <mxGeometry relative="1" as="geometry">
            <mxPoint x="1460" y="1230" as="targetPoint" />
          </mxGeometry>
        </mxCell>
        <mxCell id="nbfr8xlKrn3ljvIZ1F1--52" value="훾lan ekipe&lt;div&gt;1, 2,..n&lt;/div&gt;&lt;div&gt;ima opremu&lt;/div&gt;" style="rhombus;whiteSpace=wrap;html=1;" vertex="1" parent="1">
          <mxGeometry x="1400" y="1250" width="110" height="110" as="geometry" />
        </mxCell>
        <mxCell id="nbfr8xlKrn3ljvIZ1F1--53" style="edgeStyle=orthogonalEdgeStyle;rounded=0;orthogonalLoop=1;jettySize=auto;html=1;exitX=1;exitY=0.5;exitDx=0;exitDy=0;" edge="1" parent="1" source="nbfr8xlKrn3ljvIZ1F1--54" target="nbfr8xlKrn3ljvIZ1F1--57">
          <mxGeometry relative="1" as="geometry" />
        </mxCell>
        <mxCell id="nbfr8xlKrn3ljvIZ1F1--54" value="oprema ispravna" style="shape=document;whiteSpace=wrap;html=1;boundedLbl=1;" vertex="1" parent="1">
          <mxGeometry x="2810" y="770" width="120" height="80" as="geometry" />
        </mxCell>
        <mxCell id="nbfr8xlKrn3ljvIZ1F1--55" style="edgeStyle=orthogonalEdgeStyle;rounded=0;orthogonalLoop=1;jettySize=auto;html=1;exitX=0.5;exitY=1;exitDx=0;exitDy=0;entryX=0.5;entryY=0;entryDx=0;entryDy=0;" edge="1" parent="1" source="nbfr8xlKrn3ljvIZ1F1--57" target="nbfr8xlKrn3ljvIZ1F1--62">
          <mxGeometry relative="1" as="geometry" />
        </mxCell>
        <mxCell id="nbfr8xlKrn3ljvIZ1F1--56" style="edgeStyle=orthogonalEdgeStyle;rounded=0;orthogonalLoop=1;jettySize=auto;html=1;exitX=1;exitY=0.5;exitDx=0;exitDy=0;entryX=0;entryY=0.5;entryDx=0;entryDy=0;fillColor=#f8cecc;strokeColor=#b85450;" edge="1" parent="1" source="nbfr8xlKrn3ljvIZ1F1--57" target="nbfr8xlKrn3ljvIZ1F1--59">
          <mxGeometry relative="1" as="geometry" />
        </mxCell>
        <mxCell id="nbfr8xlKrn3ljvIZ1F1--57" value="oprema na&amp;nbsp;&lt;div&gt;stanju&lt;/div&gt;" style="rhombus;whiteSpace=wrap;html=1;" vertex="1" parent="1">
          <mxGeometry x="2820" y="885" width="100" height="100" as="geometry" />
        </mxCell>
        <mxCell id="nbfr8xlKrn3ljvIZ1F1--58" style="edgeStyle=orthogonalEdgeStyle;rounded=0;orthogonalLoop=1;jettySize=auto;html=1;exitX=0.5;exitY=1;exitDx=0;exitDy=0;" edge="1" parent="1" source="nbfr8xlKrn3ljvIZ1F1--59">
          <mxGeometry relative="1" as="geometry">
            <mxPoint x="3030" y="1000" as="targetPoint" />
            <Array as="points">
              <mxPoint x="3130" y="965" />
              <mxPoint x="3130" y="985" />
              <mxPoint x="3030" y="985" />
            </Array>
          </mxGeometry>
        </mxCell>
        <mxCell id="nbfr8xlKrn3ljvIZ1F1--59" value="nabavka nove opreme" style="rounded=1;whiteSpace=wrap;html=1;fillColor=#f8cecc;strokeColor=#b85450;" vertex="1" parent="1">
          <mxGeometry x="3130" y="905" width="120" height="60" as="geometry" />
        </mxCell>
        <mxCell id="nbfr8xlKrn3ljvIZ1F1--60" style="edgeStyle=orthogonalEdgeStyle;rounded=0;orthogonalLoop=1;jettySize=auto;html=1;exitX=1;exitY=0.5;exitDx=0;exitDy=0;entryX=0;entryY=0.5;entryDx=0;entryDy=0;" edge="1" parent="1" source="nbfr8xlKrn3ljvIZ1F1--62" target="nbfr8xlKrn3ljvIZ1F1--64">
          <mxGeometry relative="1" as="geometry" />
        </mxCell>
        <mxCell id="nbfr8xlKrn3ljvIZ1F1--61" style="edgeStyle=orthogonalEdgeStyle;rounded=0;orthogonalLoop=1;jettySize=auto;html=1;exitX=0.5;exitY=1;exitDx=0;exitDy=0;entryX=0.5;entryY=0;entryDx=0;entryDy=0;" edge="1" parent="1" source="nbfr8xlKrn3ljvIZ1F1--62" target="nbfr8xlKrn3ljvIZ1F1--91">
          <mxGeometry relative="1" as="geometry" />
        </mxCell>
        <mxCell id="nbfr8xlKrn3ljvIZ1F1--62" value="oprema&amp;nbsp;&lt;div&gt;ispravna&lt;/div&gt;" style="rhombus;whiteSpace=wrap;html=1;" vertex="1" parent="1">
          <mxGeometry x="2820" y="1020" width="100" height="100" as="geometry" />
        </mxCell>
        <mxCell id="nbfr8xlKrn3ljvIZ1F1--63" style="edgeStyle=orthogonalEdgeStyle;rounded=0;orthogonalLoop=1;jettySize=auto;html=1;exitX=1;exitY=0.5;exitDx=0;exitDy=0;entryX=0;entryY=0.5;entryDx=0;entryDy=0;" edge="1" parent="1" source="nbfr8xlKrn3ljvIZ1F1--64" target="nbfr8xlKrn3ljvIZ1F1--67">
          <mxGeometry relative="1" as="geometry" />
        </mxCell>
        <mxCell id="nbfr8xlKrn3ljvIZ1F1--64" value="servis opreme" style="rounded=1;whiteSpace=wrap;html=1;" vertex="1" parent="1">
          <mxGeometry x="2960" y="1040" width="120" height="60" as="geometry" />
        </mxCell>
        <mxCell id="nbfr8xlKrn3ljvIZ1F1--65" style="edgeStyle=orthogonalEdgeStyle;rounded=0;orthogonalLoop=1;jettySize=auto;html=1;exitX=0.5;exitY=1;exitDx=0;exitDy=0;entryX=0.5;entryY=0;entryDx=0;entryDy=0;" edge="1" parent="1" source="nbfr8xlKrn3ljvIZ1F1--67" target="nbfr8xlKrn3ljvIZ1F1--79">
          <mxGeometry relative="1" as="geometry" />
        </mxCell>
        <mxCell id="nbfr8xlKrn3ljvIZ1F1--66" style="edgeStyle=orthogonalEdgeStyle;rounded=0;orthogonalLoop=1;jettySize=auto;html=1;exitX=0.5;exitY=0;exitDx=0;exitDy=0;fillColor=#f8cecc;strokeColor=#b85450;" edge="1" parent="1" source="nbfr8xlKrn3ljvIZ1F1--67">
          <mxGeometry relative="1" as="geometry">
            <mxPoint x="3190" y="970" as="targetPoint" />
          </mxGeometry>
        </mxCell>
        <mxCell id="nbfr8xlKrn3ljvIZ1F1--67" value="da li je mogu훶&lt;div&gt;servis&lt;/div&gt;" style="rhombus;whiteSpace=wrap;html=1;" vertex="1" parent="1">
          <mxGeometry x="3150" y="1030" width="80" height="80" as="geometry" />
        </mxCell>
        <mxCell id="nbfr8xlKrn3ljvIZ1F1--68" style="edgeStyle=orthogonalEdgeStyle;rounded=0;orthogonalLoop=1;jettySize=auto;html=1;exitX=0.5;exitY=1;exitDx=0;exitDy=0;entryX=0.5;entryY=0;entryDx=0;entryDy=0;" edge="1" parent="1" source="nbfr8xlKrn3ljvIZ1F1--70" target="nbfr8xlKrn3ljvIZ1F1--73">
          <mxGeometry relative="1" as="geometry" />
        </mxCell>
        <mxCell id="nbfr8xlKrn3ljvIZ1F1--69" style="edgeStyle=orthogonalEdgeStyle;rounded=0;orthogonalLoop=1;jettySize=auto;html=1;exitX=1;exitY=0.5;exitDx=0;exitDy=0;" edge="1" parent="1" source="nbfr8xlKrn3ljvIZ1F1--70" target="nbfr8xlKrn3ljvIZ1F1--85">
          <mxGeometry relative="1" as="geometry" />
        </mxCell>
        <mxCell id="nbfr8xlKrn3ljvIZ1F1--70" value="da li je treba zamena gumica" style="rhombus;whiteSpace=wrap;html=1;" vertex="1" parent="1">
          <mxGeometry x="3150" y="1240" width="80" height="80" as="geometry" />
        </mxCell>
        <mxCell id="nbfr8xlKrn3ljvIZ1F1--71" style="edgeStyle=orthogonalEdgeStyle;rounded=0;orthogonalLoop=1;jettySize=auto;html=1;exitX=0.5;exitY=1;exitDx=0;exitDy=0;entryX=0.5;entryY=0;entryDx=0;entryDy=0;" edge="1" parent="1" source="nbfr8xlKrn3ljvIZ1F1--73" target="nbfr8xlKrn3ljvIZ1F1--76">
          <mxGeometry relative="1" as="geometry" />
        </mxCell>
        <mxCell id="nbfr8xlKrn3ljvIZ1F1--72" style="edgeStyle=orthogonalEdgeStyle;rounded=0;orthogonalLoop=1;jettySize=auto;html=1;exitX=1;exitY=0.5;exitDx=0;exitDy=0;entryX=0;entryY=0.5;entryDx=0;entryDy=0;" edge="1" parent="1" source="nbfr8xlKrn3ljvIZ1F1--73" target="nbfr8xlKrn3ljvIZ1F1--83">
          <mxGeometry relative="1" as="geometry" />
        </mxCell>
        <mxCell id="nbfr8xlKrn3ljvIZ1F1--73" value="da li je treba zamena&lt;div&gt;opruge&lt;/div&gt;" style="rhombus;whiteSpace=wrap;html=1;" vertex="1" parent="1">
          <mxGeometry x="3150" y="1340" width="80" height="80" as="geometry" />
        </mxCell>
        <mxCell id="nbfr8xlKrn3ljvIZ1F1--74" style="edgeStyle=orthogonalEdgeStyle;rounded=0;orthogonalLoop=1;jettySize=auto;html=1;exitX=1;exitY=0.5;exitDx=0;exitDy=0;entryX=0;entryY=0.5;entryDx=0;entryDy=0;" edge="1" parent="1" source="nbfr8xlKrn3ljvIZ1F1--76" target="nbfr8xlKrn3ljvIZ1F1--87">
          <mxGeometry relative="1" as="geometry" />
        </mxCell>
        <mxCell id="nbfr8xlKrn3ljvIZ1F1--75" style="edgeStyle=orthogonalEdgeStyle;rounded=0;orthogonalLoop=1;jettySize=auto;html=1;exitX=0.5;exitY=1;exitDx=0;exitDy=0;" edge="1" parent="1" source="nbfr8xlKrn3ljvIZ1F1--76">
          <mxGeometry relative="1" as="geometry">
            <mxPoint x="2870" y="1000" as="targetPoint" />
            <Array as="points">
              <mxPoint x="3190" y="1550" />
              <mxPoint x="3430" y="1550" />
              <mxPoint x="3430" y="1000" />
              <mxPoint x="2870" y="1000" />
            </Array>
          </mxGeometry>
        </mxCell>
        <mxCell id="nbfr8xlKrn3ljvIZ1F1--76" value="da li je treba&amp;nbsp;&lt;div&gt;X + n&lt;/div&gt;&lt;div&gt;deo&lt;/div&gt;" style="rhombus;whiteSpace=wrap;html=1;" vertex="1" parent="1">
          <mxGeometry x="3150" y="1450" width="80" height="80" as="geometry" />
        </mxCell>
        <mxCell id="nbfr8xlKrn3ljvIZ1F1--77" style="edgeStyle=orthogonalEdgeStyle;rounded=0;orthogonalLoop=1;jettySize=auto;html=1;exitX=0.5;exitY=1;exitDx=0;exitDy=0;entryX=0.5;entryY=0;entryDx=0;entryDy=0;" edge="1" parent="1" source="nbfr8xlKrn3ljvIZ1F1--79" target="nbfr8xlKrn3ljvIZ1F1--70">
          <mxGeometry relative="1" as="geometry" />
        </mxCell>
        <mxCell id="nbfr8xlKrn3ljvIZ1F1--78" style="edgeStyle=orthogonalEdgeStyle;rounded=0;orthogonalLoop=1;jettySize=auto;html=1;exitX=1;exitY=0.5;exitDx=0;exitDy=0;entryX=0;entryY=0.5;entryDx=0;entryDy=0;" edge="1" parent="1" source="nbfr8xlKrn3ljvIZ1F1--79" target="nbfr8xlKrn3ljvIZ1F1--81">
          <mxGeometry relative="1" as="geometry" />
        </mxCell>
        <mxCell id="nbfr8xlKrn3ljvIZ1F1--79" value="da li je treba&amp;nbsp;&lt;div&gt;훾i큄훶enje&lt;/div&gt;" style="rhombus;whiteSpace=wrap;html=1;" vertex="1" parent="1">
          <mxGeometry x="3150" y="1140" width="80" height="80" as="geometry" />
        </mxCell>
        <mxCell id="nbfr8xlKrn3ljvIZ1F1--80" style="edgeStyle=orthogonalEdgeStyle;rounded=0;orthogonalLoop=1;jettySize=auto;html=1;exitX=1;exitY=0.5;exitDx=0;exitDy=0;" edge="1" parent="1" source="nbfr8xlKrn3ljvIZ1F1--81">
          <mxGeometry relative="1" as="geometry">
            <mxPoint x="3430" y="1180" as="targetPoint" />
          </mxGeometry>
        </mxCell>
        <mxCell id="nbfr8xlKrn3ljvIZ1F1--81" value="o훾istiti" style="rounded=1;whiteSpace=wrap;html=1;" vertex="1" parent="1">
          <mxGeometry x="3270" y="1160" width="80" height="40" as="geometry" />
        </mxCell>
        <mxCell id="nbfr8xlKrn3ljvIZ1F1--82" style="edgeStyle=orthogonalEdgeStyle;rounded=0;orthogonalLoop=1;jettySize=auto;html=1;exitX=1;exitY=0.5;exitDx=0;exitDy=0;" edge="1" parent="1" source="nbfr8xlKrn3ljvIZ1F1--83">
          <mxGeometry relative="1" as="geometry">
            <mxPoint x="3430" y="1380" as="targetPoint" />
          </mxGeometry>
        </mxCell>
        <mxCell id="nbfr8xlKrn3ljvIZ1F1--83" value="zamena opruge" style="rounded=1;whiteSpace=wrap;html=1;" vertex="1" parent="1">
          <mxGeometry x="3270" y="1360" width="80" height="40" as="geometry" />
        </mxCell>
        <mxCell id="nbfr8xlKrn3ljvIZ1F1--84" style="edgeStyle=orthogonalEdgeStyle;rounded=0;orthogonalLoop=1;jettySize=auto;html=1;exitX=1;exitY=0.5;exitDx=0;exitDy=0;" edge="1" parent="1" source="nbfr8xlKrn3ljvIZ1F1--85">
          <mxGeometry relative="1" as="geometry">
            <mxPoint x="3430" y="1280" as="targetPoint" />
          </mxGeometry>
        </mxCell>
        <mxCell id="nbfr8xlKrn3ljvIZ1F1--85" value="zamena gumice" style="rounded=1;whiteSpace=wrap;html=1;" vertex="1" parent="1">
          <mxGeometry x="3270" y="1260" width="80" height="40" as="geometry" />
        </mxCell>
        <mxCell id="nbfr8xlKrn3ljvIZ1F1--86" style="edgeStyle=orthogonalEdgeStyle;rounded=0;orthogonalLoop=1;jettySize=auto;html=1;exitX=1;exitY=0.5;exitDx=0;exitDy=0;" edge="1" parent="1" source="nbfr8xlKrn3ljvIZ1F1--87">
          <mxGeometry relative="1" as="geometry">
            <mxPoint x="3430" y="1490" as="targetPoint" />
          </mxGeometry>
        </mxCell>
        <mxCell id="nbfr8xlKrn3ljvIZ1F1--87" value="zamena X + n dela" style="rounded=1;whiteSpace=wrap;html=1;" vertex="1" parent="1">
          <mxGeometry x="3270" y="1470" width="80" height="40" as="geometry" />
        </mxCell>
        <mxCell id="nbfr8xlKrn3ljvIZ1F1--88" value="oprema spremna" style="ellipse;whiteSpace=wrap;html=1;" vertex="1" parent="1">
          <mxGeometry x="2810" y="1580" width="120" height="80" as="geometry" />
        </mxCell>
        <mxCell id="nbfr8xlKrn3ljvIZ1F1--89" style="edgeStyle=orthogonalEdgeStyle;rounded=0;orthogonalLoop=1;jettySize=auto;html=1;exitX=1;exitY=0.5;exitDx=0;exitDy=0;entryX=0;entryY=0.5;entryDx=0;entryDy=0;fillColor=#f8cecc;strokeColor=#b85450;" edge="1" parent="1" source="nbfr8xlKrn3ljvIZ1F1--91" target="nbfr8xlKrn3ljvIZ1F1--94">
          <mxGeometry relative="1" as="geometry" />
        </mxCell>
        <mxCell id="nbfr8xlKrn3ljvIZ1F1--90" style="edgeStyle=orthogonalEdgeStyle;rounded=0;orthogonalLoop=1;jettySize=auto;html=1;exitX=0.5;exitY=1;exitDx=0;exitDy=0;entryX=0.5;entryY=0;entryDx=0;entryDy=0;fillColor=#d5e8d4;strokeColor=#82b366;" edge="1" parent="1" source="nbfr8xlKrn3ljvIZ1F1--91" target="nbfr8xlKrn3ljvIZ1F1--88">
          <mxGeometry relative="1" as="geometry" />
        </mxCell>
        <mxCell id="nbfr8xlKrn3ljvIZ1F1--91" value="oprema atestirana" style="rhombus;whiteSpace=wrap;html=1;" vertex="1" parent="1">
          <mxGeometry x="2820" y="1160" width="100" height="100" as="geometry" />
        </mxCell>
        <mxCell id="nbfr8xlKrn3ljvIZ1F1--92" style="edgeStyle=orthogonalEdgeStyle;rounded=0;orthogonalLoop=1;jettySize=auto;html=1;exitX=0.5;exitY=1;exitDx=0;exitDy=0;entryX=0.5;entryY=0;entryDx=0;entryDy=0;fillColor=#d5e8d4;strokeColor=#82b366;" edge="1" parent="1" source="nbfr8xlKrn3ljvIZ1F1--94" target="nbfr8xlKrn3ljvIZ1F1--97">
          <mxGeometry relative="1" as="geometry" />
        </mxCell>
        <mxCell id="nbfr8xlKrn3ljvIZ1F1--93" style="edgeStyle=orthogonalEdgeStyle;rounded=0;orthogonalLoop=1;jettySize=auto;html=1;exitX=1;exitY=0.5;exitDx=0;exitDy=0;fillColor=#f8cecc;strokeColor=#b85450;" edge="1" parent="1" source="nbfr8xlKrn3ljvIZ1F1--94">
          <mxGeometry relative="1" as="geometry">
            <mxPoint x="3090" y="1210" as="targetPoint" />
          </mxGeometry>
        </mxCell>
        <mxCell id="nbfr8xlKrn3ljvIZ1F1--94" value="protivpo탑arna&lt;div&gt;za큄tita&lt;/div&gt;" style="rhombus;whiteSpace=wrap;html=1;" vertex="1" parent="1">
          <mxGeometry x="2970" y="1160" width="100" height="100" as="geometry" />
        </mxCell>
        <mxCell id="nbfr8xlKrn3ljvIZ1F1--95" style="edgeStyle=orthogonalEdgeStyle;rounded=0;orthogonalLoop=1;jettySize=auto;html=1;exitX=0.5;exitY=1;exitDx=0;exitDy=0;entryX=0.5;entryY=0;entryDx=0;entryDy=0;fillColor=#d5e8d4;strokeColor=#82b366;" edge="1" parent="1" source="nbfr8xlKrn3ljvIZ1F1--97" target="nbfr8xlKrn3ljvIZ1F1--100">
          <mxGeometry relative="1" as="geometry" />
        </mxCell>
        <mxCell id="nbfr8xlKrn3ljvIZ1F1--96" style="edgeStyle=orthogonalEdgeStyle;rounded=0;orthogonalLoop=1;jettySize=auto;html=1;exitX=1;exitY=0.5;exitDx=0;exitDy=0;fillColor=#f8cecc;strokeColor=#b85450;" edge="1" parent="1" source="nbfr8xlKrn3ljvIZ1F1--97">
          <mxGeometry relative="1" as="geometry">
            <mxPoint x="3090" y="1350" as="targetPoint" />
          </mxGeometry>
        </mxCell>
        <mxCell id="nbfr8xlKrn3ljvIZ1F1--97" value="vodonepropusna&lt;div&gt;za큄tita&lt;/div&gt;" style="rhombus;whiteSpace=wrap;html=1;" vertex="1" parent="1">
          <mxGeometry x="2970" y="1300" width="100" height="100" as="geometry" />
        </mxCell>
        <mxCell id="nbfr8xlKrn3ljvIZ1F1--98" style="edgeStyle=orthogonalEdgeStyle;rounded=0;orthogonalLoop=1;jettySize=auto;html=1;exitX=0;exitY=0.5;exitDx=0;exitDy=0;fillColor=#d5e8d4;strokeColor=#82b366;" edge="1" parent="1" source="nbfr8xlKrn3ljvIZ1F1--100">
          <mxGeometry relative="1" as="geometry">
            <mxPoint x="2870" y="1490" as="targetPoint" />
          </mxGeometry>
        </mxCell>
        <mxCell id="nbfr8xlKrn3ljvIZ1F1--99" style="edgeStyle=orthogonalEdgeStyle;rounded=0;orthogonalLoop=1;jettySize=auto;html=1;exitX=1;exitY=0.5;exitDx=0;exitDy=0;fillColor=#f8cecc;strokeColor=#b85450;" edge="1" parent="1" source="nbfr8xlKrn3ljvIZ1F1--100">
          <mxGeometry relative="1" as="geometry">
            <mxPoint x="2870" y="1140" as="targetPoint" />
            <Array as="points">
              <mxPoint x="3090" y="1490" />
              <mxPoint x="3090" y="1140" />
            </Array>
          </mxGeometry>
        </mxCell>
        <mxCell id="nbfr8xlKrn3ljvIZ1F1--100" value="antistatik&lt;div&gt;za큄tita&lt;/div&gt;" style="rhombus;whiteSpace=wrap;html=1;" vertex="1" parent="1">
          <mxGeometry x="2970" y="1440" width="100" height="100" as="geometry" />
        </mxCell>
        <mxCell id="nbfr8xlKrn3ljvIZ1F1--101" style="edgeStyle=orthogonalEdgeStyle;rounded=0;orthogonalLoop=1;jettySize=auto;html=1;exitX=0.5;exitY=0.888;exitDx=0;exitDy=0;entryX=0.5;entryY=0;entryDx=0;entryDy=0;exitPerimeter=0;" edge="1" parent="1" source="nbfr8xlKrn3ljvIZ1F1--102" target="nbfr8xlKrn3ljvIZ1F1--52">
          <mxGeometry relative="1" as="geometry" />
        </mxCell>
        <mxCell id="nbfr8xlKrn3ljvIZ1F1--102" value="oprema ispravna" style="shape=document;whiteSpace=wrap;html=1;boundedLbl=1;" vertex="1" parent="1">
          <mxGeometry x="1400" y="1140" width="120" height="80" as="geometry" />
        </mxCell>
        <mxCell id="nbfr8xlKrn3ljvIZ1F1--103" style="edgeStyle=orthogonalEdgeStyle;rounded=0;orthogonalLoop=1;jettySize=auto;html=1;exitX=1;exitY=0.5;exitDx=0;exitDy=0;entryX=0;entryY=0.5;entryDx=0;entryDy=0;" edge="1" parent="1" source="nbfr8xlKrn3ljvIZ1F1--104" target="nbfr8xlKrn3ljvIZ1F1--106">
          <mxGeometry relative="1" as="geometry" />
        </mxCell>
        <mxCell id="nbfr8xlKrn3ljvIZ1F1--104" value="provera kamiona" style="shape=document;whiteSpace=wrap;html=1;boundedLbl=1;" vertex="1" parent="1">
          <mxGeometry x="4230" y="770" width="120" height="80" as="geometry" />
        </mxCell>
        <mxCell id="nbfr8xlKrn3ljvIZ1F1--105" style="edgeStyle=orthogonalEdgeStyle;rounded=0;orthogonalLoop=1;jettySize=auto;html=1;exitX=1;exitY=0.5;exitDx=0;exitDy=0;entryX=0;entryY=0.5;entryDx=0;entryDy=0;" edge="1" parent="1" source="nbfr8xlKrn3ljvIZ1F1--106" target="nbfr8xlKrn3ljvIZ1F1--109">
          <mxGeometry relative="1" as="geometry" />
        </mxCell>
        <mxCell id="nbfr8xlKrn3ljvIZ1F1--106" value="da li je&lt;div&gt;potreban&lt;/div&gt;&lt;div&gt;vatrogasni&lt;/div&gt;&lt;div&gt;kamion&lt;/div&gt;" style="rhombus;whiteSpace=wrap;html=1;" vertex="1" parent="1">
          <mxGeometry x="4430" y="755" width="110" height="110" as="geometry" />
        </mxCell>
        <mxCell id="nbfr8xlKrn3ljvIZ1F1--107" style="edgeStyle=orthogonalEdgeStyle;rounded=0;orthogonalLoop=1;jettySize=auto;html=1;exitX=1;exitY=0.5;exitDx=0;exitDy=0;entryX=0;entryY=0.5;entryDx=0;entryDy=0;" edge="1" parent="1" source="nbfr8xlKrn3ljvIZ1F1--109" target="nbfr8xlKrn3ljvIZ1F1--112">
          <mxGeometry relative="1" as="geometry" />
        </mxCell>
        <mxCell id="nbfr8xlKrn3ljvIZ1F1--108" style="edgeStyle=orthogonalEdgeStyle;rounded=0;orthogonalLoop=1;jettySize=auto;html=1;exitX=0.5;exitY=1;exitDx=0;exitDy=0;entryX=0.5;entryY=0;entryDx=0;entryDy=0;" edge="1" parent="1" source="nbfr8xlKrn3ljvIZ1F1--109" target="nbfr8xlKrn3ljvIZ1F1--125">
          <mxGeometry relative="1" as="geometry" />
        </mxCell>
        <mxCell id="nbfr8xlKrn3ljvIZ1F1--109" value="da li ima goriva" style="rhombus;whiteSpace=wrap;html=1;" vertex="1" parent="1">
          <mxGeometry x="4595" y="760" width="100" height="100" as="geometry" />
        </mxCell>
        <mxCell id="nbfr8xlKrn3ljvIZ1F1--110" style="edgeStyle=orthogonalEdgeStyle;rounded=0;orthogonalLoop=1;jettySize=auto;html=1;exitX=1;exitY=0.5;exitDx=0;exitDy=0;entryX=0;entryY=0.5;entryDx=0;entryDy=0;" edge="1" parent="1" source="nbfr8xlKrn3ljvIZ1F1--112">
          <mxGeometry relative="1" as="geometry">
            <mxPoint x="4876" y="810" as="targetPoint" />
          </mxGeometry>
        </mxCell>
        <mxCell id="nbfr8xlKrn3ljvIZ1F1--111" style="edgeStyle=orthogonalEdgeStyle;rounded=0;orthogonalLoop=1;jettySize=auto;html=1;exitX=0.5;exitY=1;exitDx=0;exitDy=0;entryX=0.5;entryY=0;entryDx=0;entryDy=0;" edge="1" parent="1" source="nbfr8xlKrn3ljvIZ1F1--112" target="nbfr8xlKrn3ljvIZ1F1--127">
          <mxGeometry relative="1" as="geometry" />
        </mxCell>
        <mxCell id="nbfr8xlKrn3ljvIZ1F1--112" value="da li ima&amp;nbsp;&lt;div&gt;ulja u motoru&lt;/div&gt;" style="rhombus;whiteSpace=wrap;html=1;" vertex="1" parent="1">
          <mxGeometry x="4735" y="760" width="100" height="100" as="geometry" />
        </mxCell>
        <mxCell id="nbfr8xlKrn3ljvIZ1F1--113" style="edgeStyle=orthogonalEdgeStyle;rounded=0;orthogonalLoop=1;jettySize=auto;html=1;exitX=1;exitY=0.5;exitDx=0;exitDy=0;entryX=0;entryY=0.5;entryDx=0;entryDy=0;" edge="1" parent="1" source="nbfr8xlKrn3ljvIZ1F1--114" target="nbfr8xlKrn3ljvIZ1F1--116">
          <mxGeometry relative="1" as="geometry" />
        </mxCell>
        <mxCell id="nbfr8xlKrn3ljvIZ1F1--114" value="da li je dobar&lt;div&gt;pritisak u gumam&lt;/div&gt;" style="rhombus;whiteSpace=wrap;html=1;" vertex="1" parent="1">
          <mxGeometry x="4880" y="760" width="100" height="100" as="geometry" />
        </mxCell>
        <mxCell id="nbfr8xlKrn3ljvIZ1F1--115" style="edgeStyle=orthogonalEdgeStyle;rounded=0;orthogonalLoop=1;jettySize=auto;html=1;exitX=1;exitY=0.5;exitDx=0;exitDy=0;entryX=0;entryY=0.5;entryDx=0;entryDy=0;" edge="1" parent="1" source="nbfr8xlKrn3ljvIZ1F1--116" target="nbfr8xlKrn3ljvIZ1F1--118">
          <mxGeometry relative="1" as="geometry" />
        </mxCell>
        <mxCell id="nbfr8xlKrn3ljvIZ1F1--116" value="da li radi klima" style="rhombus;whiteSpace=wrap;html=1;" vertex="1" parent="1">
          <mxGeometry x="5020" y="760" width="100" height="100" as="geometry" />
        </mxCell>
        <mxCell id="nbfr8xlKrn3ljvIZ1F1--117" style="edgeStyle=orthogonalEdgeStyle;rounded=0;orthogonalLoop=1;jettySize=auto;html=1;exitX=1;exitY=0.5;exitDx=0;exitDy=0;entryX=0;entryY=0.5;entryDx=0;entryDy=0;" edge="1" parent="1" source="nbfr8xlKrn3ljvIZ1F1--118" target="nbfr8xlKrn3ljvIZ1F1--120">
          <mxGeometry relative="1" as="geometry" />
        </mxCell>
        <mxCell id="nbfr8xlKrn3ljvIZ1F1--118" value="da li pali" style="rhombus;whiteSpace=wrap;html=1;" vertex="1" parent="1">
          <mxGeometry x="5160" y="760" width="100" height="100" as="geometry" />
        </mxCell>
        <mxCell id="nbfr8xlKrn3ljvIZ1F1--119" style="edgeStyle=orthogonalEdgeStyle;rounded=0;orthogonalLoop=1;jettySize=auto;html=1;exitX=1;exitY=0.5;exitDx=0;exitDy=0;entryX=0;entryY=0.5;entryDx=0;entryDy=0;" edge="1" parent="1" source="nbfr8xlKrn3ljvIZ1F1--120" target="nbfr8xlKrn3ljvIZ1F1--122">
          <mxGeometry relative="1" as="geometry" />
        </mxCell>
        <mxCell id="nbfr8xlKrn3ljvIZ1F1--120" value="da li radi signalizacija" style="rhombus;whiteSpace=wrap;html=1;" vertex="1" parent="1">
          <mxGeometry x="5300" y="760" width="100" height="100" as="geometry" />
        </mxCell>
        <mxCell id="nbfr8xlKrn3ljvIZ1F1--121" style="edgeStyle=orthogonalEdgeStyle;rounded=0;orthogonalLoop=1;jettySize=auto;html=1;exitX=1;exitY=0.5;exitDx=0;exitDy=0;entryX=0;entryY=0.5;entryDx=0;entryDy=0;" edge="1" parent="1" source="nbfr8xlKrn3ljvIZ1F1--122" target="nbfr8xlKrn3ljvIZ1F1--123">
          <mxGeometry relative="1" as="geometry" />
        </mxCell>
        <mxCell id="nbfr8xlKrn3ljvIZ1F1--122" value="da li je&amp;nbsp;&lt;span style=&quot;background-color: initial;&quot;&gt;naduvao vazduh&lt;/span&gt;" style="rhombus;whiteSpace=wrap;html=1;" vertex="1" parent="1">
          <mxGeometry x="5440" y="760" width="100" height="100" as="geometry" />
        </mxCell>
        <mxCell id="nbfr8xlKrn3ljvIZ1F1--123" value="kamion spreman" style="ellipse;whiteSpace=wrap;html=1;" vertex="1" parent="1">
          <mxGeometry x="5585" y="770" width="120" height="80" as="geometry" />
        </mxCell>
        <mxCell id="nbfr8xlKrn3ljvIZ1F1--124" style="edgeStyle=orthogonalEdgeStyle;rounded=0;orthogonalLoop=1;jettySize=auto;html=1;exitX=0.5;exitY=1;exitDx=0;exitDy=0;entryX=0.5;entryY=0;entryDx=0;entryDy=0;" edge="1" parent="1" source="nbfr8xlKrn3ljvIZ1F1--125" target="nbfr8xlKrn3ljvIZ1F1--130">
          <mxGeometry relative="1" as="geometry" />
        </mxCell>
        <mxCell id="nbfr8xlKrn3ljvIZ1F1--125" value="sipaj gorivo" style="rounded=1;whiteSpace=wrap;html=1;" vertex="1" parent="1">
          <mxGeometry x="4600" y="920" width="90" height="45" as="geometry" />
        </mxCell>
        <mxCell id="nbfr8xlKrn3ljvIZ1F1--126" style="edgeStyle=orthogonalEdgeStyle;rounded=0;orthogonalLoop=1;jettySize=auto;html=1;exitX=0.5;exitY=1;exitDx=0;exitDy=0;entryX=0.5;entryY=0;entryDx=0;entryDy=0;" edge="1" parent="1" source="nbfr8xlKrn3ljvIZ1F1--127" target="nbfr8xlKrn3ljvIZ1F1--135">
          <mxGeometry relative="1" as="geometry" />
        </mxCell>
        <mxCell id="nbfr8xlKrn3ljvIZ1F1--127" value="sipaj ulja" style="rounded=1;whiteSpace=wrap;html=1;" vertex="1" parent="1">
          <mxGeometry x="4740" y="920" width="90" height="45" as="geometry" />
        </mxCell>
        <mxCell id="nbfr8xlKrn3ljvIZ1F1--128" style="edgeStyle=orthogonalEdgeStyle;rounded=0;orthogonalLoop=1;jettySize=auto;html=1;exitX=0;exitY=0.5;exitDx=0;exitDy=0;entryX=0;entryY=0.5;entryDx=0;entryDy=0;fillColor=#f8cecc;strokeColor=#b85450;" edge="1" parent="1" source="nbfr8xlKrn3ljvIZ1F1--130" target="nbfr8xlKrn3ljvIZ1F1--125">
          <mxGeometry relative="1" as="geometry" />
        </mxCell>
        <mxCell id="nbfr8xlKrn3ljvIZ1F1--129" style="edgeStyle=orthogonalEdgeStyle;rounded=0;orthogonalLoop=1;jettySize=auto;html=1;exitX=0.5;exitY=1;exitDx=0;exitDy=0;entryX=0.5;entryY=0;entryDx=0;entryDy=0;" edge="1" parent="1" source="nbfr8xlKrn3ljvIZ1F1--130" target="nbfr8xlKrn3ljvIZ1F1--132">
          <mxGeometry relative="1" as="geometry" />
        </mxCell>
        <mxCell id="nbfr8xlKrn3ljvIZ1F1--130" value="da li je pun rezervoar" style="rhombus;whiteSpace=wrap;html=1;" vertex="1" parent="1">
          <mxGeometry x="4605" y="1010" width="80" height="80" as="geometry" />
        </mxCell>
        <mxCell id="nbfr8xlKrn3ljvIZ1F1--131" style="edgeStyle=orthogonalEdgeStyle;rounded=0;orthogonalLoop=1;jettySize=auto;html=1;exitX=0;exitY=0.5;exitDx=0;exitDy=0;" edge="1" parent="1" source="nbfr8xlKrn3ljvIZ1F1--132">
          <mxGeometry relative="1" as="geometry">
            <mxPoint x="4560" y="810" as="targetPoint" />
          </mxGeometry>
        </mxCell>
        <mxCell id="nbfr8xlKrn3ljvIZ1F1--132" value="rezervoar&lt;div&gt;pun&lt;/div&gt;" style="ellipse;whiteSpace=wrap;html=1;" vertex="1" parent="1">
          <mxGeometry x="4600" y="1120" width="90" height="60" as="geometry" />
        </mxCell>
        <mxCell id="nbfr8xlKrn3ljvIZ1F1--133" style="edgeStyle=orthogonalEdgeStyle;rounded=0;orthogonalLoop=1;jettySize=auto;html=1;exitX=0;exitY=0.5;exitDx=0;exitDy=0;entryX=0;entryY=0.25;entryDx=0;entryDy=0;fillColor=#f8cecc;strokeColor=#b85450;" edge="1" parent="1" source="nbfr8xlKrn3ljvIZ1F1--135" target="nbfr8xlKrn3ljvIZ1F1--127">
          <mxGeometry relative="1" as="geometry" />
        </mxCell>
        <mxCell id="nbfr8xlKrn3ljvIZ1F1--134" style="edgeStyle=orthogonalEdgeStyle;rounded=0;orthogonalLoop=1;jettySize=auto;html=1;exitX=0.5;exitY=1;exitDx=0;exitDy=0;entryX=0.5;entryY=0;entryDx=0;entryDy=0;" edge="1" parent="1" source="nbfr8xlKrn3ljvIZ1F1--135" target="nbfr8xlKrn3ljvIZ1F1--137">
          <mxGeometry relative="1" as="geometry" />
        </mxCell>
        <mxCell id="nbfr8xlKrn3ljvIZ1F1--135" value="da li je nivo na MAX" style="rhombus;whiteSpace=wrap;html=1;" vertex="1" parent="1">
          <mxGeometry x="4745" y="1010" width="80" height="80" as="geometry" />
        </mxCell>
        <mxCell id="nbfr8xlKrn3ljvIZ1F1--136" style="edgeStyle=orthogonalEdgeStyle;rounded=0;orthogonalLoop=1;jettySize=auto;html=1;exitX=0;exitY=0.5;exitDx=0;exitDy=0;" edge="1" parent="1" source="nbfr8xlKrn3ljvIZ1F1--137">
          <mxGeometry relative="1" as="geometry">
            <mxPoint x="4710" y="810" as="targetPoint" />
          </mxGeometry>
        </mxCell>
        <mxCell id="nbfr8xlKrn3ljvIZ1F1--137" value="rezervoar&lt;div&gt;pun&lt;/div&gt;" style="ellipse;whiteSpace=wrap;html=1;" vertex="1" parent="1">
          <mxGeometry x="4740" y="1120" width="90" height="60" as="geometry" />
        </mxCell>
      </root>
    </mxGraphModel>
  </diagram>
</mxfile>
